<svg width="370" height="370" viewBox="0 0 370 370" fill="none" xmlns="http://www.w3.org/2000/svg">
<g clip-path="url(#clip0_2196_1861)">
<rect width="370" height="370" fill="#111827"/>
<path d="M164.5 251.5C141.451 316.614 38 282.5 41.9996 209" stroke="#6366F1" stroke-width="34.9765" stroke-linecap="round"/>
<path d="M223.668 225.481C200.899 233.811 180.113 228.079 167.164 221.081C162.411 218.512 155.965 220.289 154.105 225.362L70.5051 453.348C68.74 458.161 72.0352 463.336 77.1437 463.772L281.458 481.224C286.701 481.672 290.866 476.891 289.703 471.758L235.203 231.251C234.07 226.251 228.483 223.719 223.668 225.481Z" fill="#4338CA"/>
<path d="M176.086 227.865C176.086 227.865 141.025 331.223 121.622 463.107" stroke="#312E81" stroke-width="4.63328" stroke-linecap="round"/>
<ellipse rx="6.94839" ry="7.9625" transform="matrix(0.981327 0.192346 -0.196289 0.980546 183.426 268.478)" fill="#312E81"/>
<ellipse rx="6.94839" ry="7.9625" transform="matrix(0.981327 0.192346 -0.196289 0.980546 173.467 315.308)" fill="#312E81"/>
<path d="M100.452 134.04C110.536 147.431 91.232 200.156 57.5227 195.985C47.4386 178.836 64.7255 132.449 100.452 134.04Z" fill="#FCD34D"/>
<path d="M92.1319 144.661L42 219.282" stroke="#FFFBEB" stroke-width="6.16565" stroke-linecap="round"/>
<ellipse cx="198.029" cy="153.294" rx="55.7439" ry="53.5578" transform="rotate(15 198.029 153.294)" fill="#6366F1"/>
<path d="M160.794 144.449C160.044 147.249 160.993 150.381 163.432 153.157C165.872 155.933 169.602 158.125 173.802 159.25C178.002 160.375 182.328 160.342 185.829 159.158C189.329 157.974 191.717 155.736 192.468 152.936L176.631 148.692L160.794 144.449Z" fill="#FFFBEB"/>
<ellipse cx="151.992" cy="138.765" rx="8.74413" ry="9.83715" transform="rotate(15 151.992 138.765)" fill="#1F2937"/>
<ellipse cx="199.652" cy="151.466" rx="8.74413" ry="9.83715" transform="rotate(15 199.652 151.466)" fill="#1F2937"/>
<path d="M204.177 29.5741L169.268 90.0377C166.092 95.5389 171.828 101.883 177.621 99.2767L236.435 72.81C242.502 70.0796 249.357 69.654 255.715 71.6127L293.691 83.3111C312.932 89.238 333.33 78.4228 339.221 59.1711C345.197 39.6377 333.936 19.011 314.273 13.4762L272.584 1.74179C246.1 -5.71281 217.934 5.74712 204.177 29.5741Z" fill="#4F46E5"/>
<path d="M282.284 59.3516C285.537 58.0345 293.34 57.0607 298.522 63.7027" stroke="#3730A3" stroke-width="4.37207" stroke-linecap="round"/>
<path d="M242.74 191.138C246.622 195.502 254.499 194.03 256.859 188.688C264.455 171.491 277.446 144.056 276.492 136.81C275.222 127.162 272.063 117.858 267.198 109.43C262.332 101.002 255.854 93.6155 248.133 87.6913C240.412 81.767 231.6 77.4215 222.2 74.9028C212.8 72.384 202.996 71.7414 193.348 73.0117C183.699 74.2819 174.396 77.4401 165.968 82.3059C157.54 87.1717 150.153 93.6499 144.229 101.371C139.796 107.147 136.248 113.534 133.687 120.321C132.256 124.113 134.613 128.153 138.528 129.202L200.898 145.914C202.282 146.285 203.528 147.054 204.481 148.125L242.74 191.138Z" fill="#3730A3"/>
<path d="M288.498 73.95L254.494 132.847C250.381 139.971 256.934 148.512 264.88 146.383L317.423 132.304C325.56 130.124 334.231 131.265 341.526 135.477L362.95 147.846C383.74 159.849 410.325 152.726 422.328 131.936C434.331 111.145 427.208 84.5608 406.418 72.5575L370.686 51.9278C341.909 35.3135 305.112 45.1732 288.498 73.95Z" fill="#6366F1"/>
<path d="M325.587 70.9535C328.841 69.6363 336.644 68.6626 341.826 75.3045" stroke="#3730A3" stroke-width="4.37207" stroke-linecap="round"/>
<path d="M342.693 104.545C345.946 103.227 353.749 102.254 358.931 108.896" stroke="#3730A3" stroke-width="4.37207" stroke-linecap="round"/>
<path d="M292.333 108.454C295.587 107.137 303.39 106.163 308.572 112.805" stroke="#3730A3" stroke-width="4.37207" stroke-linecap="round"/>
<path d="M255.611 28.9981C258.864 27.681 266.667 26.7072 271.849 33.3492" stroke="#3730A3" stroke-width="4.37207" stroke-linecap="round"/>
<path d="M230.139 48.2791C233.393 46.962 241.195 45.9882 246.377 52.6302" stroke="#3730A3" stroke-width="4.37207" stroke-linecap="round"/>
<path d="M296.401 28.325C299.654 27.0079 307.457 26.0341 312.639 32.6761" stroke="#3730A3" stroke-width="4.37207" stroke-linecap="round"/>
<path d="M115.795 216H24.2793C15.779 301.531 52.0589 332.686 61.8548 336.72H147.488C126.052 329.344 114.739 247.116 115.795 216Z" fill="#E0E7FF"/>
<path d="M124 305.5C169 360.5 250 305.5 233.948 251.712" stroke="#6366F1" stroke-width="34.9765" stroke-linecap="round"/>
</g>
<defs>
<clipPath id="clip0_2196_1861">
<rect width="370" height="370" fill="white"/>
</clipPath>
</defs>
</svg>
