<svg width="201" height="201" viewBox="0 0 201 201" fill="none" xmlns="http://www.w3.org/2000/svg">
<g clip-path="url(#clip0_18563_10115)">
<rect width="200.004" height="200.004" transform="translate(0.311646 0.780884)" fill="#F87171"/>
<path d="M82.6201 166.439C44.0706 172.691 29.4843 133.099 36.7774 108.094" stroke="#6366F1" stroke-width="26.0123" stroke-linecap="round"/>
<ellipse cx="111.78" cy="92.8208" rx="41.4571" ry="39.8313" fill="#6366F1"/>
<path d="M83.3278 93.6312C83.3278 95.7871 84.6125 97.8547 86.8992 99.3791C89.1858 100.904 92.2872 101.76 95.5211 101.76C98.7549 101.76 101.856 100.904 104.143 99.3791C106.43 97.8547 107.714 95.7871 107.714 93.6312L95.5211 93.6312L83.3278 93.6312Z" fill="white"/>
<ellipse cx="74.7416" cy="91.1944" rx="6.50307" ry="7.31596" fill="#1F2937"/>
<ellipse cx="112.592" cy="91.1944" rx="6.50307" ry="7.31596" fill="#1F2937"/>
<path d="M133.174 136.926C117.75 144.11 102.874 141.344 93.4019 137.224C89.9247 135.712 85.5237 137.339 84.526 140.997L39.6873 305.406C38.7406 308.877 41.3537 312.298 44.9518 312.298H188.857C192.551 312.298 195.177 308.706 194.057 305.187L141.584 140.272C140.493 136.843 136.435 135.406 133.174 136.926Z" fill="#4338CA"/>
<path d="M128.463 258.125C166.668 244.305 171.18 193.528 140.23 164.353" stroke="#6366F1" stroke-width="26.0123" stroke-linecap="round"/>
<path d="M100.399 140.78C100.399 140.78 81.7028 215.801 76.0126 309.178" stroke="#312E81" stroke-width="3.25154" stroke-linecap="round"/>
<ellipse rx="4.87624" ry="5.58792" transform="matrix(0.994137 0.108129 -0.112124 0.993694 107.604 169.394)" fill="#312E81"/>
<ellipse rx="4.87624" ry="5.58792" transform="matrix(0.994137 0.108129 -0.112124 0.993694 103.436 202.734)" fill="#312E81"/>
<path d="M181.053 86.2148H46.5271C41.956 86.2148 40.719 79.9191 44.9503 78.1895L57.6775 72.9874C62.8582 70.8699 65.8333 65.5098 66.7155 59.983C68.8732 46.4655 78.9884 29.3746 108.667 27.9498C138.989 26.494 150.356 45.1349 153.359 59.9936C154.469 65.4849 157.931 70.5492 163.284 72.2014L182.282 78.0651C186.851 79.4752 185.834 86.2148 181.053 86.2148Z" fill="#FFFBEB"/>
</g>
<defs>
<clipPath id="clip0_18563_10115">
<rect width="200.004" height="200.004" fill="white" transform="translate(0.311646 0.780884)"/>
</clipPath>
</defs>
</svg>
