<svg width="100" height="100" viewBox="0 0 100 100" fill="none" xmlns="http://www.w3.org/2000/svg">
<g clip-path="url(#clip0_3102_571)">
<rect width="100" height="100" fill="#111827"/>
<path d="M37.3462 13.8607L30.873 38.019C30.2936 40.1815 32.8382 41.8079 34.5574 40.3739L52.0852 25.7547C53.8787 24.2588 56.1593 23.4738 58.4936 23.5488L72.2276 23.9904C79.3496 24.2194 85.3233 18.6615 85.6079 11.5416C85.9008 4.21579 80.0696 -1.89715 72.7381 -1.95002L58.2429 -2.05456C48.4665 -2.12506 39.8766 4.41714 37.3462 13.8607Z" fill="#4F46E5"/>
<path d="M65.9391 16.7157C66.9391 15.9611 69.5391 14.9046 71.9391 16.7157" stroke="#3730A3" stroke-width="1.56042" stroke-linecap="round"/>
<path d="M53.9391 8.71573C54.9391 7.96111 57.5391 6.90463 59.9391 8.71573" stroke="#3730A3" stroke-width="1.56042" stroke-linecap="round"/>
<path d="M46.9391 17.7157C47.9391 16.9611 50.5391 15.9046 52.9391 17.7157" stroke="#3730A3" stroke-width="1.56042" stroke-linecap="round"/>
<path d="M67.9391 4.71573C68.9391 3.96111 71.5391 2.90463 73.9391 4.71573" stroke="#3730A3" stroke-width="1.56042" stroke-linecap="round"/>
<path d="M34.5 83.5C30.1489 98.1717 14 115 7 123" stroke="#6366F1" stroke-width="12.4834" stroke-linecap="round"/>
<ellipse cx="48.4937" cy="48.1695" rx="19.8953" ry="19.1151" fill="#6366F1"/>
<path d="M35.2414 48.6812C35.2414 49.7158 35.8579 50.7081 36.9553 51.4397C38.0527 52.1713 39.5411 52.5823 41.093 52.5823C42.6449 52.5823 44.1333 52.1713 45.2307 51.4397C46.3281 50.7081 46.9446 49.7159 46.9446 48.6812L41.093 48.6812L35.2414 48.6812Z" fill="white"/>
<ellipse cx="31.1208" cy="47.5109" rx="3.12084" ry="3.51094" fill="#1F2937"/>
<ellipse cx="49.2854" cy="47.5109" rx="3.12084" ry="3.51094" fill="#1F2937"/>
<path d="M66.9951 53.0392C67.9243 53.4845 69.0632 52.8095 69.2446 51.7951C69.3321 51.3054 69.4395 50.7856 69.5605 50.2504C70.8098 44.7261 70.6899 38.9104 68.3372 33.7584V33.7584C67.2528 31.3836 65.6292 29.2946 63.5956 27.6575L62.9315 27.1228C60.3495 25.0441 57.2995 23.6264 54.0458 22.9926L53.3755 22.862C50.4528 22.2927 47.416 22.2989 44.4934 22.8682V22.8682C40.8434 23.5792 37.3743 25.1534 34.447 27.4466L33.6704 28.0551C31.9072 29.4364 30.4151 31.1779 29.3097 33.126V33.126C27.8104 35.7685 27 38.7933 27 41.8316C27 42.4979 27 43.1845 27 43.8532C27 44.9577 27.8954 45.8529 29 45.8529H49.7275C51.2234 45.8529 52.7003 46.1885 54.0493 46.835L66.9951 53.0392Z" fill="#3730A3"/>
<path d="M65.3414 16.7418L59.0592 40.1876C58.2993 43.0234 61.3474 45.3624 63.89 43.8944L80.7034 34.1872C83.3073 32.6838 86.4018 32.2764 89.3062 33.0546L97.8343 35.3397C106.111 37.5573 114.617 32.6459 116.835 24.3697C119.053 16.0935 114.141 7.58666 105.865 5.36906L91.641 1.55776C80.1856 -1.51171 68.4109 5.28643 65.3414 16.7418Z" fill="#6366F1"/>
<path d="M58.7607 69.336C51.359 72.7839 44.2199 71.4565 39.6741 69.4793C38.0054 68.7535 35.8933 69.5344 35.4145 71.29L13.8964 150.19C13.442 151.856 14.6961 153.498 16.4228 153.498H85.4834C87.2557 153.498 88.5162 151.774 87.9788 150.085L62.7969 70.9418C62.2734 69.2964 60.326 68.6069 58.7607 69.336Z" fill="#4338CA"/>
<path d="M56.4999 127.5C74.8349 120.868 76.9999 96.5 62.1472 82.4986" stroke="#6366F1" stroke-width="12.4834" stroke-linecap="round"/>
<path d="M43.0324 71.1857C43.0324 71.1857 34.06 107.188 31.3292 152" stroke="#312E81" stroke-width="1.56042" stroke-linecap="round"/>
<ellipse cx="2.34012" cy="2.68165" rx="2.34012" ry="2.68165" transform="matrix(0.994137 0.108129 -0.112124 0.993694 44.4641 82)" fill="#312E81"/>
<ellipse cx="2.34012" cy="2.68165" rx="2.34012" ry="2.68165" transform="matrix(0.994137 0.108129 -0.112124 0.993694 42.4641 98)" fill="#312E81"/>
<path d="M77.8505 12.283C78.8505 11.5283 81.4505 10.4719 83.8505 12.283" stroke="#3730A3" stroke-width="1.56042" stroke-linecap="round"/>
<path d="M86.8505 22.283C87.8505 21.5283 90.4505 20.4719 92.8505 22.283" stroke="#3730A3" stroke-width="1.56042" stroke-linecap="round"/>
<path d="M69.8505 28.283C70.8505 27.5283 73.4505 26.4719 75.8505 28.283" stroke="#3730A3" stroke-width="1.56042" stroke-linecap="round"/>
</g>
<defs>
<clipPath id="clip0_3102_571">
<rect width="100" height="100" fill="white"/>
</clipPath>
</defs>
</svg>
