<svg width="201" height="201" viewBox="0 0 201 201" fill="none" xmlns="http://www.w3.org/2000/svg">
<g clip-path="url(#clip0_18563_10141)">
<rect width="200.004" height="200.004" transform="translate(0.316895)" fill="#F3F4F6"/>
<path d="M134.433 178.162C190.694 183.371 169.857 264.638 162.563 239.633" stroke="#6366F1" stroke-width="26.0123" stroke-linecap="round"/>
<ellipse rx="41.4571" ry="39.8313" transform="matrix(-1 0 0 1 105.272 104.539)" fill="#6366F1"/>
<path d="M133.724 105.354C133.724 107.51 132.439 109.578 130.152 111.102C127.866 112.626 124.764 113.483 121.53 113.483C118.297 113.483 115.195 112.626 112.908 111.102C110.622 109.578 109.337 107.51 109.337 105.354L121.53 105.354L133.724 105.354Z" fill="white"/>
<ellipse rx="6.50307" ry="7.31596" transform="matrix(-1 0 0 1 142.31 102.914)" fill="#1F2937"/>
<ellipse rx="6.50307" ry="7.31596" transform="matrix(-1 0 0 1 104.46 102.914)" fill="#1F2937"/>
<path d="M83.8789 148.646C99.3023 155.831 114.178 153.065 123.651 148.945C127.128 147.433 131.529 149.06 132.527 152.718L177.365 317.127C178.312 320.598 175.699 324.019 172.101 324.019H28.1954C24.5022 324.019 21.8757 320.427 22.9955 316.908L75.4685 151.993C76.5595 148.564 80.6173 147.127 83.8789 148.646Z" fill="#4338CA"/>
<path d="M62.5426 251.092C24.337 237.273 36.4956 176.074 76.8221 176.074" stroke="#6366F1" stroke-width="26.0123" stroke-linecap="round"/>
<path d="M116.654 152.501C116.654 152.501 135.35 227.522 141.04 320.898" stroke="#312E81" stroke-width="3.25154" stroke-linecap="round"/>
<ellipse rx="4.87624" ry="5.58792" transform="matrix(-0.994137 0.108129 0.112124 0.993694 109.448 181.116)" fill="#312E81"/>
<path d="M60.4591 47.3574V91.6841C60.4591 93.9858 62.325 95.8516 64.6266 95.8516H145.893C148.195 95.8516 150.061 93.9857 150.061 91.6841V47.3574C150.061 43.6747 145.634 41.8019 142.991 44.3665L130.563 56.4266C128.946 57.9955 126.375 57.9955 124.758 56.4266L108.162 40.3225C106.545 38.7537 103.975 38.7537 102.358 40.3226L85.7618 56.4266C84.145 57.9955 81.5741 57.9955 79.9573 56.4266L67.5289 44.3665C64.8859 41.8019 60.4591 43.6747 60.4591 47.3574Z" fill="#FBBF24"/>
</g>
<defs>
<clipPath id="clip0_18563_10141">
<rect width="200.004" height="200.004" fill="white" transform="translate(0.316895)"/>
</clipPath>
</defs>
</svg>
