<svg width="201" height="201" viewBox="0 0 201 201" fill="none" xmlns="http://www.w3.org/2000/svg">
<g clip-path="url(#clip0_18563_10090)">
<rect width="200.004" height="200.004" transform="translate(0.302002 0.780884)" fill="#111827"/>
<path d="M72.1916 174.776C63.1249 205.348 29.4745 240.414 14.8882 257.084" stroke="#6366F1" stroke-width="26.0123" stroke-linecap="round"/>
<ellipse cx="101.352" cy="101.155" rx="41.4571" ry="39.8313" fill="#6366F1"/>
<path d="M72.8996 101.968C72.8996 104.124 74.1842 106.191 76.4709 107.716C78.7576 109.24 81.859 110.097 85.0929 110.097C88.3267 110.097 91.4281 109.24 93.7148 107.716C96.0015 106.191 97.2861 104.124 97.2861 101.968L85.0929 101.968L72.8996 101.968Z" fill="white"/>
<ellipse cx="64.3119" cy="99.5295" rx="6.50307" ry="7.31596" fill="#1F2937"/>
<path d="M81.954 11.0963L68.5152 61.2507C67.2925 65.8139 72.634 69.2676 76.2935 66.28L113.449 35.9464C117.282 32.8171 122.124 31.1919 127.069 31.3751L156.602 32.4689C171.564 33.023 184.136 21.3275 184.662 6.36386C185.195 -8.81871 173.135 -21.4686 157.944 -21.6597L125.738 -22.0648C105.278 -22.3222 87.2499 -8.6681 81.954 11.0963Z" fill="#4F46E5"/>
<ellipse cx="102.164" cy="99.5295" rx="6.50307" ry="7.31596" fill="#1F2937"/>
<path d="M143.795 17.4535C145.879 15.8811 151.297 13.6796 156.298 17.4535" stroke="#3730A3" stroke-width="3.25154" stroke-linecap="round"/>
<path d="M140.755 119.735C144.384 122.122 149.759 119.549 150.426 115.257C152.573 101.442 156.624 79.2324 154.544 74.211C151.775 67.5245 147.715 61.4489 142.597 56.3312C137.48 51.2135 131.404 47.154 124.717 44.3843C118.031 41.6146 110.864 40.1891 103.627 40.1891C96.3893 40.1891 89.2227 41.6146 82.5361 44.3843C75.8495 47.154 69.774 51.2135 64.6563 56.3312C59.5386 61.4489 55.479 67.5245 52.7094 74.211C50.6372 79.2137 49.3174 84.4851 48.7841 89.8538C48.4862 92.8527 50.9572 95.3017 53.9709 95.3017L101.992 95.3017C103.059 95.3017 104.101 95.6141 104.992 96.2002L140.755 119.735Z" fill="#3730A3"/>
<path d="M151.07 26.7448L137.979 75.6C136.395 81.5093 142.747 86.3831 148.045 83.3242L183.08 63.0968C188.506 59.9641 194.954 59.1151 201.006 60.7367L218.777 65.4984C236.023 70.1193 253.749 59.885 258.37 42.6395C262.991 25.3939 252.757 7.66761 235.511 3.04667L205.872 -4.89517C182.001 -11.2912 157.466 2.87454 151.07 26.7448Z" fill="#6366F1"/>
<path d="M122.745 145.262C107.321 152.447 92.4452 149.681 82.9728 145.561C79.4957 144.048 75.0946 145.675 74.0969 149.334L29.2582 313.742C28.3115 317.213 30.9246 320.635 34.5227 320.635H178.428C182.121 320.635 184.748 317.043 183.628 313.523L131.155 148.608C130.064 145.179 126.006 143.743 122.745 145.262Z" fill="#4338CA"/>
<path d="M118.035 266.462C156.24 252.642 160.752 201.865 129.802 172.69" stroke="#6366F1" stroke-width="26.0123" stroke-linecap="round"/>
<path d="M89.9708 149.117C89.9708 149.117 71.2744 224.138 65.5842 317.515" stroke="#312E81" stroke-width="3.25154" stroke-linecap="round"/>
<ellipse rx="4.87624" ry="5.58792" transform="matrix(0.994137 0.108129 -0.112124 0.993694 97.1742 177.731)" fill="#312E81"/>
<path d="M177.136 17.4535C179.22 15.8811 184.637 13.6796 189.638 17.4535" stroke="#3730A3" stroke-width="3.25154" stroke-linecap="round"/>
<path d="M195.888 38.2904C197.972 36.718 203.389 34.5165 208.39 38.2904" stroke="#3730A3" stroke-width="3.25154" stroke-linecap="round"/>
<path d="M160.465 50.7927C162.549 49.2203 167.967 47.0189 172.968 50.7927" stroke="#3730A3" stroke-width="3.25154" stroke-linecap="round"/>
<path d="M118.791 0.781514C120.874 -0.790941 126.292 -2.99238 131.293 0.781514" stroke="#3730A3" stroke-width="3.25154" stroke-linecap="round"/>
<path d="M104.204 19.5363C106.288 17.9638 111.706 15.7624 116.707 19.5363" stroke="#3730A3" stroke-width="3.25154" stroke-linecap="round"/>
</g>
<defs>
<clipPath id="clip0_18563_10090">
<rect width="200.004" height="200.004" fill="white" transform="translate(0.302002 0.780884)"/>
</clipPath>
</defs>
</svg>
