<svg width="201" height="201" viewBox="0 0 201 201" fill="none" xmlns="http://www.w3.org/2000/svg">
<g clip-path="url(#clip0_18563_10167)">
<rect width="200.004" height="200.004" transform="translate(0.551147 0.852905)" fill="#F59E0B"/>
<path d="M130.251 158.238C186.512 163.448 165.674 244.714 158.381 219.709" stroke="#6366F1" stroke-width="26.0123" stroke-linecap="round"/>
<ellipse rx="41.4571" ry="39.8313" transform="matrix(-1 0 0 1 101.091 84.616)" fill="#6366F1"/>
<path d="M156.111 58.9576C145.365 73.3998 113.481 72.5508 94.6106 69.2182C89.1434 68.2527 83.5486 72.3663 83.5486 77.9181L83.5486 94.4962C83.5486 98.9145 79.9668 102.496 75.5484 102.496H58.325C54.4142 102.496 51.0385 99.6661 50.6359 95.776C43.8278 29.9881 107.804 22.7533 127.55 42.4951C133.843 48.7877 140.137 50.1314 150.324 50.4183C155.191 50.5554 159.017 55.0517 156.111 58.9576Z" fill="#1F2937"/>
<path d="M129.544 85.4305C129.544 87.5864 128.259 89.654 125.972 91.1784C123.686 92.7029 120.584 93.5593 117.35 93.5593C114.117 93.5593 111.015 92.7029 108.728 91.1784C106.442 89.654 105.157 87.5864 105.157 85.4305L117.35 85.4305L129.544 85.4305Z" fill="white"/>
<ellipse rx="6.50307" ry="7.31596" transform="matrix(-1 0 0 1 138.129 82.9922)" fill="#1F2937"/>
<ellipse rx="6.50307" ry="7.31596" transform="matrix(-1 0 0 1 100.279 82.9922)" fill="#1F2937"/>
<path d="M79.6981 128.723C95.1215 135.907 109.998 133.141 119.47 129.021C122.947 127.509 127.348 129.136 128.346 132.794L173.185 297.203C174.131 300.674 171.518 304.096 167.92 304.096H24.0146C20.3214 304.096 17.6949 300.504 18.8147 296.984L71.2877 132.069C72.3787 128.64 76.4365 127.204 79.6981 128.723Z" fill="#4338CA"/>
<path d="M58.3611 231.169C20.1555 217.349 32.3141 156.151 72.6406 156.151" stroke="#6366F1" stroke-width="26.0123" stroke-linecap="round"/>
<path d="M112.472 132.578C112.472 132.578 131.168 207.599 136.859 300.976" stroke="#312E81" stroke-width="3.25154" stroke-linecap="round"/>
<ellipse rx="4.87624" ry="5.58792" transform="matrix(-0.994137 0.108129 0.112124 0.993694 105.268 161.194)" fill="#312E81"/>
<ellipse rx="4.87624" ry="5.58792" transform="matrix(-0.994137 0.108129 0.112124 0.993694 109.435 194.532)" fill="#312E81"/>
</g>
<defs>
<clipPath id="clip0_18563_10167">
<rect width="200.004" height="200.004" fill="white" transform="translate(0.551147 0.852905)"/>
</clipPath>
</defs>
</svg>
