<svg width="201" height="201" viewBox="0 0 201 201" fill="none" xmlns="http://www.w3.org/2000/svg">
<g clip-path="url(#clip0_18563_10128)">
<rect width="200.004" height="200.004" transform="translate(0.786499 0.0604248)" fill="#111827"/>
<path d="M69.7611 141.458C31.2116 147.709 16.6256 112.285 34.3374 88.3221" stroke="#6366F1" stroke-width="26.0123" stroke-linecap="round"/>
<ellipse cx="98.7592" cy="71.8923" rx="41.4571" ry="39.8313" fill="#6366F1"/>
<rect x="56.0554" y="56.9542" width="87.5179" height="25.0051" rx="6.25128" fill="#4F46E5"/>
<path d="M68.5578 81.7519C68.5578 83.9078 69.8425 85.9754 72.1291 87.4999C74.4158 89.0243 77.5172 89.8807 80.7511 89.8807C83.9849 89.8807 87.0863 89.0243 89.373 87.4999C91.6597 85.9754 92.9443 83.9078 92.9443 81.7519L80.7511 81.7519L68.5578 81.7519Z" fill="white"/>
<ellipse cx="64.6425" cy="70.5201" rx="6.50307" ry="7.31596" fill="#111827"/>
<ellipse cx="99.5727" cy="70.2664" rx="6.50307" ry="7.31596" fill="#111827"/>
<path d="M120.153 115.999C104.73 123.184 89.8538 120.417 80.3814 116.297C76.9042 114.785 72.5032 116.412 71.5055 120.071L26.6668 284.479C25.7201 287.95 28.3332 291.372 31.9313 291.372H175.837C179.53 291.372 182.157 287.78 181.037 284.26L128.564 119.345C127.473 115.916 123.415 114.48 120.153 115.999Z" fill="#4338CA"/>
<path d="M87.3794 119.852C87.3794 119.852 68.6831 194.873 62.9929 288.25" stroke="#312E81" stroke-width="3.25154" stroke-linecap="round"/>
<ellipse rx="4.87624" ry="5.58792" transform="matrix(0.994137 0.108129 -0.112124 0.993694 94.5849 148.467)" fill="#312E81"/>
<ellipse rx="4.87624" ry="5.58792" transform="matrix(0.994137 0.108129 -0.112124 0.993694 90.4163 181.806)" fill="#312E81"/>
<path d="M127.45 135.356C165.999 141.607 180.585 106.183 162.873 82.22" stroke="#6366F1" stroke-width="26.0123" stroke-linecap="round"/>
</g>
<defs>
<clipPath id="clip0_18563_10128">
<rect width="200.004" height="200.004" fill="white" transform="translate(0.786499 0.0604248)"/>
</clipPath>
</defs>
</svg>
