<svg width="100" height="100" viewBox="0 0 100 100" fill="none" xmlns="http://www.w3.org/2000/svg">
<g clip-path="url(#clip0_3102_622)">
<rect width="100" height="100" fill="#FEF3C7"/>
<path d="M64.3628 85.5C91.3628 88 81.3627 127 77.8627 115" stroke="#F59E0B" stroke-width="12.4834" stroke-linecap="round"/>
<ellipse cx="19.8953" cy="19.1151" rx="19.8953" ry="19.1151" transform="matrix(-1 0 0 1 70.2644 31.0543)" fill="#F59E0B"/>
<path d="M64.023 50.5595C64.023 51.5941 63.4065 52.5864 62.3091 53.318C61.2117 54.0496 59.7233 54.4606 58.1714 54.4606C56.6195 54.4606 55.1311 54.0496 54.0337 53.318C52.9363 52.5864 52.3198 51.5941 52.3198 50.5595L58.1714 50.5595L64.023 50.5595Z" fill="white"/>
<ellipse cx="3.12084" cy="3.51094" rx="3.12084" ry="3.51094" transform="matrix(-1 0 0 1 71.2644 45.8783)" fill="#1F2937"/>
<ellipse cx="3.12084" cy="3.51094" rx="3.12084" ry="3.51094" transform="matrix(-1 0 0 1 53.0999 45.8783)" fill="#1F2937"/>
<path d="M40.102 71.336C47.5038 74.7839 54.6428 73.4565 59.1887 71.4793C60.8574 70.7535 62.9695 71.5344 63.4483 73.29L84.9664 152.19C85.4207 153.856 84.1667 155.498 82.44 155.498H13.3794C11.6071 155.498 10.3466 153.774 10.884 152.085L36.0659 72.9418C36.5894 71.2964 38.5368 70.6069 40.102 71.336Z" fill="#B45309"/>
<path d="M29.8628 120.5C11.5279 113.868 17.3628 84.4986 36.7156 84.4986" stroke="#F59E0B" stroke-width="12.4834" stroke-linecap="round"/>
<path d="M55.8304 73.1857C55.8304 73.1857 64.8028 109.188 67.5336 154" stroke="#78350F" stroke-width="1.56042" stroke-linecap="round"/>
<ellipse cx="2.34012" cy="2.68165" rx="2.34012" ry="2.68165" transform="matrix(-0.994137 0.108129 0.112124 0.993694 54.3987 84)" fill="#78350F"/>
<path d="M28.8628 22.7275V44C28.8628 45.1046 29.7582 46 30.8628 46H69.8628C70.9674 46 71.8628 45.1046 71.8628 44V22.7275C71.8628 20.9602 69.7384 20.0615 68.47 21.2922L62.5056 27.0799C61.7297 27.8328 60.4959 27.8328 59.72 27.0799L51.7556 19.3515C50.9797 18.5986 49.7459 18.5986 48.97 19.3515L41.0056 27.0799C40.2297 27.8328 38.9959 27.8328 38.22 27.0799L32.2556 21.2922C30.9872 20.0615 28.8628 20.9602 28.8628 22.7275Z" fill="#FBBF24"/>
</g>
<defs>
<clipPath id="clip0_3102_622">
<rect width="100" height="100" fill="white"/>
</clipPath>
</defs>
</svg>
