<svg width="100" height="100" viewBox="0 0 100 100" fill="none" xmlns="http://www.w3.org/2000/svg">
<g clip-path="url(#clip0_3102_596)">
<rect width="100" height="100" fill="#064E3B"/>
<path d="M39.5 79.5C21 82.5 14 63.5 17.5 51.5" stroke="#10B981" stroke-width="12.4834" stroke-linecap="round"/>
<ellipse cx="53.4937" cy="44.1695" rx="19.8953" ry="19.1151" fill="#10B981"/>
<path d="M39.8398 44.5595C39.8398 45.5941 40.4563 46.5864 41.5537 47.318C42.6511 48.0496 44.1395 48.4606 45.6914 48.4606C47.2433 48.4606 48.7317 48.0496 49.8291 47.318C50.9265 46.5864 51.543 45.5941 51.543 44.5595L45.6914 44.5595L39.8398 44.5595Z" fill="white"/>
<ellipse cx="35.7192" cy="43.3892" rx="3.12084" ry="3.51094" fill="#09271E"/>
<ellipse cx="53.8838" cy="43.3892" rx="3.12084" ry="3.51094" fill="#09271E"/>
<path d="M63.7607 65.336C56.359 68.7839 49.2199 67.4565 44.6741 65.4793C43.0054 64.7535 40.8933 65.5344 40.4145 67.29L18.8964 146.19C18.442 147.856 19.6961 149.498 21.4228 149.498H90.4834C92.2557 149.498 93.5162 147.774 92.9788 146.085L67.7969 66.9418C67.2734 65.2964 65.326 64.6069 63.7607 65.336Z" fill="#047857"/>
<path d="M61.5 123.5C79.8349 116.868 82 92.5 67.1472 78.4986" stroke="#10B981" stroke-width="12.4834" stroke-linecap="round"/>
<path d="M48.0324 67.1857C48.0324 67.1857 39.06 103.188 36.3292 148" stroke="#064E3B" stroke-width="1.56042" stroke-linecap="round"/>
<ellipse cx="2.34012" cy="2.68165" rx="2.34012" ry="2.68165" transform="matrix(0.994137 0.108129 -0.112124 0.993694 49.4641 78)" fill="#064E3B"/>
<ellipse cx="2.34012" cy="2.68165" rx="2.34012" ry="2.68165" transform="matrix(0.994137 0.108129 -0.112124 0.993694 47.4641 94)" fill="#064E3B"/>
<path d="M86.7383 41H22.1791C19.9854 41 19.3918 37.9787 21.4224 37.1487L27.5302 34.6522C30.0164 33.636 31.4442 31.0636 31.8675 28.4113C32.903 21.9242 37.7573 13.7223 52 13.0385C66.5517 12.3399 72.0066 21.2857 73.4479 28.4164C73.9805 31.0517 75.6418 33.4821 78.2108 34.275L87.3281 37.089C89.5208 37.7657 89.033 41 86.7383 41Z" fill="#ECFDF5"/>
</g>
<defs>
<clipPath id="clip0_3102_596">
<rect width="100" height="100" fill="white"/>
</clipPath>
</defs>
</svg>
