<svg width="100" height="100" viewBox="0 0 100 100" fill="none" xmlns="http://www.w3.org/2000/svg">
<g clip-path="url(#clip0_3102_635)">
<rect width="100" height="100" fill="#831843"/>
<path d="M66.5647 80.5C93.5647 83 83.5646 122 80.0646 110" stroke="#EC4899" stroke-width="12.4834" stroke-linecap="round"/>
<ellipse cx="19.8953" cy="19.1151" rx="19.8953" ry="19.1151" transform="matrix(-1 0 0 1 72.4663 26.0543)" fill="#EC4899"/>
<path d="M66.2249 45.5595C66.2249 46.5941 65.6084 47.5864 64.511 48.318C63.4136 49.0496 61.9252 49.4606 60.3733 49.4606C58.8214 49.4606 57.333 49.0496 56.2356 48.318C55.1382 47.5864 54.5217 46.5941 54.5217 45.5595L60.3733 45.5595L66.2249 45.5595Z" fill="white"/>
<ellipse cx="3.12084" cy="3.51094" rx="3.12084" ry="3.51094" transform="matrix(-1 0 0 1 73.4663 40.8783)" fill="#53172F"/>
<ellipse cx="3.12084" cy="3.51094" rx="3.12084" ry="3.51094" transform="matrix(-1 0 0 1 55.3018 40.8783)" fill="#53172F"/>
<path d="M42.3039 66.336C49.7057 69.7839 56.8448 68.4565 61.3906 66.4793C63.0593 65.7535 65.1714 66.5344 65.6502 68.29L87.1683 147.19C87.6226 148.856 86.3686 150.498 84.6419 150.498H15.5813C13.809 150.498 12.5485 148.774 13.0859 147.085L38.2678 67.9418C38.7913 66.2964 40.7387 65.6069 42.3039 66.336Z" fill="#BE185D"/>
<path d="M32.0647 115.5C13.7298 108.868 19.5647 79.4986 38.9175 79.4986" stroke="#EC4899" stroke-width="12.4834" stroke-linecap="round"/>
<path d="M58.0323 68.1857C58.0323 68.1857 67.0047 104.188 69.7355 149" stroke="#831843" stroke-width="1.56042" stroke-linecap="round"/>
<ellipse cx="2.34012" cy="2.68165" rx="2.34012" ry="2.68165" transform="matrix(-0.994137 0.108129 0.112124 0.993694 56.6006 79)" fill="#831843"/>
<ellipse cx="2.34012" cy="2.68165" rx="2.34012" ry="2.68165" transform="matrix(-0.994137 0.108129 0.112124 0.993694 58.6006 95)" fill="#831843"/>
<path d="M33.7738 42.6605L72.8605 42.2549C73.3746 42.2496 73.8017 41.8609 73.8099 41.347C73.9109 35.0844 70.2546 21.4668 53.7121 21.2423C37.3191 21.0198 31.4224 30.9562 31.8251 40.8777C31.8667 41.9031 32.7476 42.6711 33.7738 42.6605Z" fill="#FBCFE8"/>
<path d="M50.4016 23.4215L50.4015 23.4216L50.4015 23.4216C48.0224 20.6339 40.0761 14.777 33.2315 20.3621C27.3858 25.1321 28.6074 30.9022 32.3045 35.2284C33.3846 36.4924 35.3629 36.4671 36.628 35.3697L50.4015 23.4216L50.4015 23.4216L50.4016 23.4216L50.4016 23.4215Z" fill="#FBCFE8"/>
<path d="M72.6175 36.4722L72.6175 36.4721L72.6174 36.4721C75.0251 33.6982 79.5264 25.1702 72.5088 20.0931C66.524 15.7633 60.8488 18.1002 57.1131 22.3975C56.0106 23.6659 56.4192 25.4917 57.8015 26.4287L72.6174 36.4721L72.6175 36.4721L72.6175 36.4722L72.6175 36.4722Z" fill="#FBCFE8"/>
</g>
<defs>
<clipPath id="clip0_3102_635">
<rect width="100" height="100" fill="white"/>
</clipPath>
</defs>
</svg>
