<svg width="100" height="100" viewBox="0 0 100 100" fill="none" xmlns="http://www.w3.org/2000/svg">
<g clip-path="url(#clip0_3102_609)">
<rect width="100" height="100" fill="#4C1D95"/>
<path d="M37.5831 74.5C19.0831 77.5 12.0832 60.5 20.5831 49" stroke="#A78BFA" stroke-width="12.4834" stroke-linecap="round"/>
<ellipse cx="51.4995" cy="41.1151" rx="19.8953" ry="19.1151" fill="#A78BFA"/>
<rect x="31.0057" y="33.9457" width="42" height="12" rx="3" fill="#7C3AED"/>
<path d="M37.0057 45.8467C37.0057 46.8813 37.6222 47.8736 38.7196 48.6052C39.817 49.3368 41.3054 49.7478 42.8573 49.7478C44.4092 49.7478 45.8976 49.3368 46.995 48.6052C48.0924 47.8736 48.7089 46.8813 48.7089 45.8467L42.8573 45.8467L37.0057 45.8467Z" fill="white"/>
<ellipse cx="35.1266" cy="40.4566" rx="3.12084" ry="3.51094" fill="#391D64"/>
<ellipse cx="51.8895" cy="40.3349" rx="3.12084" ry="3.51094" fill="#391D64"/>
<path d="M61.7665 62.2817C54.3648 65.7296 47.2257 64.4022 42.6799 62.425C41.0112 61.6992 38.8991 62.4801 38.4203 64.2357L16.9021 143.136C16.4478 144.802 17.7019 146.443 19.4286 146.443H88.4891C90.2615 146.443 91.5219 144.72 90.9846 143.031L65.8026 63.8875C65.2791 62.2421 63.3317 61.5526 61.7665 62.2817Z" fill="#6D28D9"/>
<path d="M46.0381 64.1313C46.0381 64.1313 37.0657 100.134 34.335 144.946" stroke="#4C1D95" stroke-width="1.56042" stroke-linecap="round"/>
<ellipse cx="2.34012" cy="2.68165" rx="2.34012" ry="2.68165" transform="matrix(0.994137 0.108129 -0.112124 0.993694 47.4698 74.9457)" fill="#4C1D95"/>
<ellipse cx="2.34012" cy="2.68165" rx="2.34012" ry="2.68165" transform="matrix(0.994137 0.108129 -0.112124 0.993694 45.4698 90.9457)" fill="#4C1D95"/>
<path d="M66.0058 74.4457C84.5058 77.4457 91.5057 60.4457 83.0057 48.9457" stroke="#A78BFA" stroke-width="12.4834" stroke-linecap="round"/>
</g>
<defs>
<clipPath id="clip0_3102_609">
<rect width="100" height="100" fill="white"/>
</clipPath>
</defs>
</svg>
