<svg width="100" height="100" viewBox="0 0 100 100" fill="none" xmlns="http://www.w3.org/2000/svg">
<g clip-path="url(#clip0_3159_570)">
<rect width="100" height="100" fill="#7C2D12"/>
<path d="M66.5647 80.5C93.5647 83 83.5646 122 80.0646 110" stroke="#F97316" stroke-width="12.4834" stroke-linecap="round"/>
<ellipse cx="19.8953" cy="19.1151" rx="19.8953" ry="19.1151" transform="matrix(-1 0 0 1 72.4663 26.0543)" fill="#F97316"/>
<path d="M66 46C66 47.0609 65.4732 48.0783 64.5355 48.8284C63.5979 49.5786 62.3261 50 61 50C59.6739 50 58.4021 49.5786 57.4645 48.8284C56.5268 48.0783 56 47.0609 56 46L61 46L66 46Z" fill="white"/>
<ellipse cx="3.12084" cy="3.51094" rx="3.12084" ry="3.51094" transform="matrix(-1 0 0 1 73.4663 40.8783)" fill="#531717"/>
<ellipse cx="3.12084" cy="3.51094" rx="3.12084" ry="3.51094" transform="matrix(-1 0 0 1 55.2417 42)" fill="#531717"/>
<path d="M42.3039 66.336C49.7057 69.7839 56.8448 68.4565 61.3906 66.4793C63.0593 65.7535 65.1714 66.5344 65.6502 68.29L87.1683 147.19C87.6226 148.856 86.3686 150.498 84.6419 150.498H15.5813C13.809 150.498 12.5485 148.774 13.0859 147.085L38.2678 67.9418C38.7913 66.2964 40.7387 65.6069 42.3039 66.336Z" fill="#C2410C"/>
<path d="M19 115.5C15.5 99.5 19.5647 79.4986 38.9175 79.4986" stroke="#F97316" stroke-width="12.4834" stroke-linecap="round"/>
<path d="M58.0323 68.1857C58.0323 68.1857 67.0047 104.188 69.7355 149" stroke="#7C2D12" stroke-width="1.56042" stroke-linecap="round"/>
<ellipse cx="2.34012" cy="2.68165" rx="2.34012" ry="2.68165" transform="matrix(-0.994137 0.108129 0.112124 0.993694 56.6006 79)" fill="#7C2D12"/>
<ellipse cx="2.34012" cy="2.68165" rx="2.34012" ry="2.68165" transform="matrix(-0.994137 0.108129 0.112124 0.993694 58.6006 95)" fill="#7C2D12"/>
<path d="M33.8026 41.0199L73.1332 39.5618C73.631 39.5433 74.0414 39.1648 74.0478 38.6668C74.118 33.1779 70.2625 22.141 53.7963 22.0018C37.5519 21.8644 31.5762 30.5387 31.8242 39.2566C31.8537 40.295 32.7644 41.0584 33.8026 41.0199Z" fill="#FED7AA"/>
<rect x="18.0449" y="38.8793" width="56" height="6" rx="3" transform="rotate(-2.75475 18.0449 38.8793)" fill="#FED7AA"/>
</g>
<defs>
<clipPath id="clip0_3159_570">
<rect width="100" height="100" fill="white"/>
</clipPath>
</defs>
</svg>
