<svg width="201" height="201" viewBox="0 0 201 201" fill="none" xmlns="http://www.w3.org/2000/svg">
<g clip-path="url(#clip0_18563_10154)">
<rect width="200.004" height="200.004" transform="translate(0.935547 0.780884)" fill="#34D399"/>
<path d="M139.64 168.525C195.901 173.735 175.064 255.001 167.771 229.996" stroke="#6366F1" stroke-width="26.0123" stroke-linecap="round"/>
<ellipse rx="41.4571" ry="39.8313" transform="matrix(-1 0 0 1 110.479 94.9027)" fill="#6366F1"/>
<path d="M138.932 95.7171C138.932 97.873 137.647 99.9406 135.361 101.465C133.074 102.99 129.973 103.846 126.739 103.846C123.505 103.846 120.403 102.99 118.117 101.465C115.83 99.9406 114.545 97.873 114.545 95.7171L126.739 95.7171L138.932 95.7171Z" fill="white"/>
<ellipse rx="6.50307" ry="7.31596" transform="matrix(-1 0 0 1 147.517 93.2789)" fill="#1F2937"/>
<ellipse rx="6.50307" ry="7.31596" transform="matrix(-1 0 0 1 109.667 93.2789)" fill="#1F2937"/>
<path d="M89.0867 139.009C104.51 146.194 119.386 143.428 128.859 139.308C132.336 137.796 136.737 139.423 137.735 143.081L182.573 307.49C183.52 310.961 180.907 314.382 177.309 314.382H33.4032C29.71 314.382 27.0835 310.79 28.2032 307.271L80.6763 142.356C81.7672 138.927 85.8251 137.49 89.0867 139.009Z" fill="#4338CA"/>
<path d="M67.7515 241.456C29.5459 227.636 41.7045 166.437 82.031 166.437" stroke="#6366F1" stroke-width="26.0123" stroke-linecap="round"/>
<path d="M121.861 142.864C121.861 142.864 140.557 217.885 146.247 311.262" stroke="#312E81" stroke-width="3.25154" stroke-linecap="round"/>
<ellipse rx="4.87624" ry="5.58792" transform="matrix(-0.994137 0.108129 0.112124 0.993694 114.657 171.48)" fill="#312E81"/>
<ellipse rx="4.87624" ry="5.58792" transform="matrix(-0.994137 0.108129 0.112124 0.993694 118.824 204.818)" fill="#312E81"/>
<path d="M35.7402 93.2115L150.515 85.0885C150.838 85.0656 151.082 84.785 151.059 84.4617L150.402 75.1739C148.797 52.5017 129.117 35.4231 106.445 37.0277C83.7725 38.6322 66.6939 58.3124 68.2984 80.9846L68.3741 82.0537C68.3933 82.3242 68.1895 82.559 67.919 82.5782L35.1518 84.8972C32.8559 85.0597 31.1264 87.0526 31.2889 89.3485C31.4514 91.6445 33.4443 93.3739 35.7402 93.2115Z" fill="#F87171"/>
</g>
<defs>
<clipPath id="clip0_18563_10154">
<rect width="200.004" height="200.004" fill="white" transform="translate(0.935547 0.780884)"/>
</clipPath>
</defs>
</svg>
