<svg width="434" height="350" viewBox="0 0 434 350" fill="none" xmlns="http://www.w3.org/2000/svg">
<path d="M168 178H197.978C201.857 178 205 181.144 205 185.022V224.978C205 228.856 201.857 232 197.978 232H168V178Z" fill="#4F46E5"/>
<path d="M164 178H169V232H164V178Z" fill="#4338CA"/>
<path d="M273.378 228H195.844C187.351 228 179.207 231.374 173.201 237.379L143.185 267.395C135.439 275.142 124.932 279.494 113.976 279.494C97.3006 279.494 82.2606 289.52 75.8459 304.912L57.5002 348.932H428L372.216 266.635C361.136 250.29 342.674 240.5 322.926 240.5H318.691C310.713 240.5 302.884 238.34 296.034 234.25C289.184 230.16 281.355 228 273.378 228Z" fill="url(#paint0_linear)"/>
<path d="M87.0002 339.227V349H133.228C149.932 349 163.474 335.458 163.474 318.754C163.474 311.876 169.05 306.3 175.928 306.3H249.425C258.579 306.3 266 298.879 266 289.725C266 280.571 273.421 273.15 282.575 273.15H283.75C293.553 273.15 301.5 265.203 301.5 255.4V240H241.5C232.111 240 224.5 247.611 224.5 257V272.077C224.5 280.361 217.785 287.077 209.5 287.077H144.633C136.042 287.077 129.078 294.041 129.078 302.632C129.078 311.224 122.113 318.188 113.522 318.188H108.039C96.4196 318.188 87.0002 327.607 87.0002 339.227Z" fill="url(#paint1_linear)"/>
<path d="M205.097 143.353H268.294C272.172 143.353 275.315 146.497 275.315 150.375V240.099H205.097V143.353Z" fill="#4F46E5"/>
<path d="M146.581 216.693H189.492C193.37 216.693 196.514 219.837 196.514 223.715V279.89C196.514 283.768 193.37 286.912 189.492 286.912H146.581V216.693Z" fill="#FBBF24"/>
<path d="M196.514 143.353H205.096V240.099H196.514V143.353Z" fill="#3730A3"/>
<path d="M141.119 216.693H147.361V286.912H141.119V216.693Z" fill="#D97706"/>
<path d="M238 183C238 175.82 243.821 170 251 170C258.18 170 264 175.82 264 183V240H238V183Z" fill="#312E81"/>
<path d="M212.899 178.462C212.899 174.154 216.392 170.66 220.701 170.66C225.01 170.66 228.503 174.154 228.503 178.462V187.825H212.899V178.462Z" fill="#818CF8"/>
<path d="M159.064 261.945C159.064 255.051 164.653 249.462 171.547 249.462C178.442 249.462 184.031 255.051 184.031 261.945V286.912H159.064V261.945Z" fill="#D97706"/>
<path d="M154.383 234.247C154.383 231.878 156.304 229.956 158.674 229.956C161.044 229.956 162.965 231.878 162.965 234.247V238.929C162.965 241.299 161.044 243.22 158.674 243.22C156.304 243.22 154.383 241.299 154.383 238.929V234.247Z" fill="#FDE68A"/>
<path d="M167 234.291C167 231.921 168.922 230 171.292 230C173.661 230 175.583 231.921 175.583 234.291V238.972C175.583 241.342 173.661 243.264 171.292 243.264C168.922 243.264 167 241.342 167 238.972V234.291Z" fill="#F59E0B"/>
<path d="M180 234.291C180 231.921 181.922 230 184.292 230C186.661 230 188.583 231.921 188.583 234.291V238.972C188.583 241.342 186.661 243.264 184.292 243.264C181.922 243.264 180 241.342 180 238.972V234.291Z" fill="#F59E0B"/>
<path d="M178 197.291C178 194.921 179.922 193 182.292 193C184.661 193 186.583 194.921 186.583 197.291V201.972C186.583 204.342 184.661 206.264 182.292 206.264C179.922 206.264 178 204.342 178 201.972V197.291Z" fill="#3730A3"/>
<path d="M280 170H322.978C326.857 170 330 173.144 330 177.022V232.978C330 236.856 326.857 240 322.978 240H280V170Z" fill="#EA580C"/>
<path d="M275 170H281V240H275V170Z" fill="#C2410C"/>
<path d="M288.264 192.626C288.264 189.179 291.059 186.385 294.506 186.385C297.953 186.385 300.747 189.179 300.747 192.626V199.648H288.264V192.626Z" fill="#C2410C"/>
<path d="M288 213.5C288 209.91 290.911 207 294.5 207C298.09 207 301 209.91 301 213.5V240H288V213.5Z" fill="#C2410C"/>
<path d="M307.769 192.626C307.769 189.179 310.564 186.385 314.011 186.385C317.458 186.385 320.253 189.179 320.253 192.626V199.648H307.769V192.626Z" fill="#FB923C"/>
<path d="M307.769 212.912C307.769 209.464 310.564 206.67 314.011 206.67C317.458 206.67 320.253 209.464 320.253 212.912V219.933H307.769V212.912Z" fill="#C2410C"/>
<path d="M212.899 204.99C212.899 200.681 216.392 197.188 220.701 197.188C225.01 197.188 228.503 200.681 228.503 204.99V213.572H212.899V204.99Z" fill="#6366F1"/>
<path opacity="0.3" d="M375.063 167.505C375.387 166.639 376.613 166.639 376.937 167.505L378.731 172.303C378.871 172.678 379.223 172.934 379.624 172.951L384.741 173.175C385.665 173.215 386.044 174.381 385.32 174.957L381.311 178.145C380.997 178.395 380.863 178.809 380.97 179.195L382.339 184.131C382.586 185.022 381.595 185.743 380.823 185.232L376.552 182.405C376.217 182.184 375.783 182.184 375.448 182.405L371.177 185.232C370.405 185.743 369.414 185.022 369.661 184.131L371.03 179.195C371.137 178.809 371.003 178.395 370.689 178.145L366.68 174.957C365.956 174.381 366.335 173.215 367.259 173.175L372.376 172.951C372.777 172.934 373.129 172.678 373.269 172.303L375.063 167.505Z" fill="#FBBF24"/>
<path opacity="0.6" d="M331.063 89.5049C331.387 88.6386 332.613 88.6386 332.937 89.5049L335.471 96.2833C335.612 96.6591 335.963 96.9146 336.364 96.9321L343.594 97.248C344.518 97.2884 344.897 98.4538 344.173 99.0296L338.51 103.535C338.196 103.785 338.061 104.198 338.169 104.585L340.102 111.558C340.349 112.449 339.358 113.17 338.587 112.659L332.552 108.665C332.217 108.444 331.783 108.444 331.448 108.665L325.413 112.659C324.642 113.17 323.651 112.449 323.898 111.558L325.831 104.585C325.939 104.198 325.804 103.785 325.49 103.535L319.827 99.0296C319.103 98.4538 319.482 97.2884 320.406 97.248L327.636 96.9321C328.037 96.9146 328.388 96.6591 328.529 96.2833L331.063 89.5049Z" fill="#FBBF24"/>
<path d="M218.009 24.5049C218.332 23.6386 219.558 23.6386 219.882 24.5049L223.143 33.2275C223.284 33.6033 223.636 33.8588 224.036 33.8763L233.34 34.2828C234.264 34.3232 234.643 35.4886 233.919 36.0644L226.631 41.8618C226.317 42.1116 226.183 42.5249 226.29 42.9116L228.778 51.8854C229.025 52.7767 228.034 53.497 227.263 52.9865L219.497 47.8469C219.162 47.6255 218.728 47.6255 218.393 47.8469L210.628 52.9865C209.856 53.497 208.865 52.7767 209.112 51.8854L211.6 42.9116C211.708 42.5249 211.573 42.1116 211.259 41.8618L203.972 36.0644C203.248 35.4886 203.626 34.3232 204.55 34.2828L213.854 33.8763C214.255 33.8588 214.606 33.6033 214.747 33.2275L218.009 24.5049Z" fill="#FBBF24"/>
<path opacity="0.6" d="M137.063 56.5049C137.387 55.6386 138.613 55.6386 138.937 56.5049L141.471 63.2833C141.612 63.6591 141.963 63.9146 142.364 63.9321L149.594 64.248C150.518 64.2884 150.897 65.4538 150.173 66.0296L144.51 70.5348C144.196 70.7846 144.061 71.1979 144.169 71.5846L146.102 78.5582C146.349 79.4495 145.358 80.1697 144.587 79.6593L138.552 75.6653C138.217 75.4438 137.783 75.4438 137.448 75.6653L131.413 79.6593C130.642 80.1697 129.651 79.4495 129.898 78.5582L131.831 71.5846C131.939 71.1979 131.804 70.7846 131.49 70.5348L125.827 66.0296C125.103 65.4538 125.482 64.2884 126.406 64.248L133.636 63.9321C134.037 63.9146 134.388 63.6591 134.529 63.2833L137.063 56.5049Z" fill="#FBBF24"/>
<path opacity="0.3" d="M90.0633 118.505C90.3873 117.639 91.6127 117.639 91.9367 118.505L94.2244 124.623C94.3649 124.999 94.7165 125.254 95.1174 125.272L101.643 125.557C102.567 125.597 102.946 126.763 102.222 127.339L97.1102 131.405C96.7961 131.655 96.6618 132.068 96.7691 132.455L98.5144 138.749C98.7615 139.64 97.7702 140.361 96.9988 139.85L91.5519 136.245C91.2173 136.024 90.7827 136.024 90.4481 136.245L85.0012 139.85C84.2298 140.361 83.2385 139.64 83.4856 138.749L85.2309 132.455C85.3382 132.068 85.2039 131.655 84.8898 131.405L79.7781 127.339C79.0543 126.763 79.4329 125.597 80.357 125.557L86.8826 125.272C87.2835 125.254 87.6351 124.999 87.7756 124.623L90.0633 118.505Z" fill="#FBBF24"/>
<rect x="219.219" y="129.505" width="20.9498" height="14.1411" fill="#3730A3"/>
<path d="M219 109.468V130H240C240 118.664 249.19 109.474 260.527 109.474H264.898C275.875 109.474 284.773 100.575 284.773 89.599C284.773 78.6225 293.671 69.7243 304.648 69.7243H351.138C370.392 69.7243 386 54.116 386 34.8622C386 15.6083 370.392 0 351.138 0H309.535C295.859 0 284.773 11.0863 284.773 24.7619V34.2258C284.773 42.6746 277.924 49.5238 269.475 49.5238C261.026 49.5238 254.177 56.373 254.177 64.8219V74.2915C254.177 84.0052 246.302 91.8797 236.589 91.8797C226.875 91.8797 219 99.7542 219 109.468Z" fill="url(#paint2_linear)"/>
<path d="M65.4887 277.328C57.6866 284.35 29.9891 285.521 24.1376 254.312" stroke="#6366F1" stroke-width="12.4834" stroke-linecap="round"/>
<path d="M34.3485 242.019L24.5154 235.672L61.3237 178.641L77.503 175.154L34.3485 242.019Z" fill="#D1D5DB"/>
<path d="M34.3483 242.019L44.1813 248.365L80.9896 191.333L77.5028 175.154L34.3483 242.019Z" fill="#9CA3AF"/>
<rect x="18.6155" y="231.865" width="37.4501" height="8.5823" rx="0.780209" transform="rotate(32.8382 18.6155 231.865)" fill="#312E81"/>
<path d="M26.375 244.301L35.5525 250.225L23.2831 269.235C21.6474 271.769 18.267 272.498 15.7328 270.862C13.1985 269.227 12.4699 265.846 14.1056 263.312L26.375 244.301Z" fill="#312E81"/>
<ellipse cx="75.6313" cy="244.169" rx="19.8953" ry="19.1151" fill="#6366F1"/>
<path d="M61.9774 244.56C61.9774 245.594 62.5939 246.586 63.6913 247.318C64.7887 248.05 66.277 248.461 67.829 248.461C69.3809 248.461 70.8693 248.05 71.9667 247.318C73.064 246.586 73.6805 245.594 73.6805 244.56L67.829 244.56L61.9774 244.56Z" fill="white"/>
<ellipse cx="57.8568" cy="243.389" rx="3.12084" ry="3.51094" fill="#1F2937"/>
<path d="M66.3225 200.95L59.8732 225.019C59.2864 227.209 61.8498 228.866 63.606 227.433L81.437 212.875C83.2765 211.374 85.6003 210.594 87.9733 210.682L102.146 211.207C109.327 211.472 115.36 205.86 115.612 198.679C115.868 191.393 110.08 185.322 102.79 185.23L87.3345 185.036C77.5157 184.912 68.864 191.465 66.3225 200.95Z" fill="#4F46E5"/>
<ellipse cx="76.0213" cy="243.389" rx="3.12084" ry="3.51094" fill="#1F2937"/>
<path d="M96.0002 204C97.0002 203.245 99.6002 202.189 102 204" stroke="#3730A3" stroke-width="1.56042" stroke-linecap="round"/>
<path d="M94.5413 253.086C96.2826 254.231 98.8623 252.997 99.1824 250.937C100.213 244.307 102.157 233.648 101.159 231.239C99.8294 228.03 97.8812 225.114 95.4252 222.658C92.9692 220.202 90.0535 218.254 86.8446 216.925C83.6357 215.596 80.1965 214.911 76.7232 214.911C73.2499 214.911 69.8106 215.596 66.6017 216.925C63.3928 218.254 60.4771 220.202 58.0212 222.658C55.5652 225.114 53.617 228.03 52.2878 231.239C51.2934 233.639 50.66 236.169 50.4041 238.746C50.2611 240.185 51.447 241.36 52.8933 241.36L75.9388 241.36C76.4505 241.36 76.951 241.51 77.3784 241.791L94.5413 253.086Z" fill="#3730A3"/>
<path d="M99.4912 208.459L93.2089 231.905C92.4491 234.74 95.4972 237.079 98.0398 235.611L114.853 225.904C117.457 224.401 120.552 223.993 123.456 224.772L131.984 227.057C140.26 229.274 148.767 224.363 150.985 216.087C153.202 207.811 148.291 199.304 140.015 197.086L125.791 193.275C114.335 190.205 102.561 197.003 99.4912 208.459Z" fill="#6366F1"/>
<path d="M85.8983 265.336C78.4966 268.784 71.3575 267.456 66.8117 265.479C65.143 264.753 63.0309 265.534 62.5521 267.29L41.034 346.19C40.5796 347.856 41.8337 349.498 43.5604 349.498H112.621C114.393 349.498 115.654 347.774 115.116 346.085L89.9345 266.942C89.4109 265.296 87.4636 264.607 85.8983 265.336Z" fill="#4338CA"/>
<path d="M97.0869 310.877C115.422 304.245 114.251 276.158 89.2848 278.499" stroke="#6366F1" stroke-width="12.4834" stroke-linecap="round"/>
<path d="M22.9671 253.142C22.9671 253.142 21.0166 250.021 19.066 250.021" stroke="#6366F1" stroke-width="12.4834" stroke-linecap="round"/>
<path d="M70.1699 267.186C70.1699 267.186 61.1975 303.188 58.4668 348" stroke="#312E81" stroke-width="1.56042" stroke-linecap="round"/>
<ellipse rx="2.34012" ry="2.68165" transform="matrix(0.994137 0.108129 -0.112124 0.993694 73.6274 280.918)" fill="#312E81"/>
<ellipse rx="2.34012" ry="2.68165" transform="matrix(0.994137 0.108129 -0.112124 0.993694 71.6274 296.918)" fill="#312E81"/>
<path d="M112 204C113 203.245 115.6 202.189 118 204" stroke="#3730A3" stroke-width="1.56042" stroke-linecap="round"/>
<path d="M132 205C133 204.245 135.6 203.189 138 205" stroke="#3730A3" stroke-width="1.56042" stroke-linecap="round"/>
<path d="M121 214C122 213.245 124.6 212.189 127 214" stroke="#3730A3" stroke-width="1.56042" stroke-linecap="round"/>
<path d="M134 218C135 217.245 137.6 216.189 140 218" stroke="#3730A3" stroke-width="1.56042" stroke-linecap="round"/>
<path d="M104 220C105 219.245 107.6 218.189 110 220" stroke="#3730A3" stroke-width="1.56042" stroke-linecap="round"/>
<path d="M84.0002 196C85.0002 195.245 87.6002 194.189 90.0002 196" stroke="#3730A3" stroke-width="1.56042" stroke-linecap="round"/>
<path d="M77.0002 205C78.0002 204.245 80.6002 203.189 83.0002 205" stroke="#3730A3" stroke-width="1.56042" stroke-linecap="round"/>
<path d="M98.0002 192C99.0002 191.245 101.6 190.189 104 192" stroke="#3730A3" stroke-width="1.56042" stroke-linecap="round"/>
<path d="M377.895 333.141C377.895 341.963 370.743 349.115 361.921 349.115C353.098 349.115 345.947 341.963 345.947 333.141L345.947 310.881L377.895 310.881L377.895 333.141Z" fill="#EA580C"/>
<path d="M356 259C356 255.686 358.686 253 362 253C365.314 253 368 255.686 368 259V311H356V259Z" fill="#065F46"/>
<path d="M296.672 288.205C297.258 285.832 300.631 285.832 301.217 288.205L302.159 292.019C302.367 292.863 303.026 293.522 303.87 293.731L307.685 294.672C310.058 295.258 310.058 298.631 307.685 299.217L303.87 300.159C303.026 300.367 302.367 301.026 302.159 301.87L301.217 305.685C300.631 308.058 297.258 308.058 296.672 305.685L295.731 301.87C295.522 301.026 294.863 300.367 294.019 300.159L290.205 299.217C287.832 298.631 287.832 295.258 290.205 294.672L294.019 293.731C294.863 293.522 295.522 292.863 295.731 292.019L296.672 288.205Z" fill="#FBBF24"/>
<path d="M413.672 232.205C414.258 229.832 417.631 229.832 418.217 232.205L419.159 236.019C419.367 236.863 420.026 237.522 420.87 237.731L424.685 238.672C427.058 239.258 427.058 242.631 424.685 243.217L420.87 244.159C420.026 244.367 419.367 245.026 419.159 245.87L418.217 249.685C417.631 252.058 414.258 252.058 413.672 249.685L412.731 245.87C412.522 245.026 411.863 244.367 411.019 244.159L407.205 243.217C404.832 242.631 404.832 239.258 407.205 238.672L411.019 237.731C411.863 237.522 412.522 236.863 412.731 236.019L413.672 232.205Z" fill="#FBBF24"/>
<path d="M364 297H366C372.627 297 378 291.627 378 285V283" stroke="#065F46" stroke-width="12.4834" stroke-linecap="round"/>
<path d="M359 285H357C350.373 285 345 279.627 345 273V271" stroke="#065F46" stroke-width="12.4834" stroke-linecap="round"/>
<defs>
<linearGradient id="paint0_linear" x1="242.75" y1="228" x2="243" y2="358.5" gradientUnits="userSpaceOnUse">
<stop stop-color="#312E81"/>
<stop offset="1" stop-color="#312E81" stop-opacity="0"/>
</linearGradient>
<linearGradient id="paint1_linear" x1="194.25" y1="240" x2="194.25" y2="349" gradientUnits="userSpaceOnUse">
<stop stop-color="#111827"/>
<stop offset="1" stop-color="#111827" stop-opacity="0"/>
</linearGradient>
<linearGradient id="paint2_linear" x1="232.5" y1="276" x2="233.5" y2="13.5" gradientUnits="userSpaceOnUse">
<stop stop-color="white"/>
<stop offset="1" stop-color="white" stop-opacity="0"/>
</linearGradient>
</defs>
</svg>
