<svg width="436" height="183" viewBox="0 0 436 183" fill="none" xmlns="http://www.w3.org/2000/svg">
<g filter="url(#filter0_dd)">
<rect x="20" width="396" height="143" rx="10" fill="#374151"/>
<path d="M41.7074 24.0455H38.017V41.5H41.7074V24.0455ZM44.6754 41.5H48.3061V33.642C48.3061 32.1932 49.2266 31.2301 50.4368 31.2301C51.63 31.2301 52.4311 32.0483 52.4311 33.3352V41.5H55.951V33.5057C55.951 32.1506 56.7266 31.2301 58.0476 31.2301C59.2067 31.2301 60.076 31.9545 60.076 33.4119V41.5H63.6982V32.696C63.6982 29.858 62.0107 28.2386 59.5732 28.2386C57.6555 28.2386 56.1641 29.2188 55.6271 30.7188H55.4908C55.0732 29.2017 53.7351 28.2386 51.9368 28.2386C50.1726 28.2386 48.8345 29.1761 48.2891 30.7188H48.1357V28.4091H44.6754V41.5ZM66.5661 46.4091H70.1967V39.4034H70.3075C70.8104 40.4943 71.9098 41.7131 74.0234 41.7131C77.0064 41.7131 79.3331 39.3523 79.3331 34.9716C79.3331 30.4716 76.9041 28.2386 74.032 28.2386C71.8416 28.2386 70.7933 29.5426 70.3075 30.608H70.1456V28.4091H66.5661V46.4091ZM70.12 34.9545C70.12 32.6193 71.1087 31.1278 72.8729 31.1278C74.6712 31.1278 75.6257 32.6875 75.6257 34.9545C75.6257 37.2386 74.6541 38.8239 72.8729 38.8239C71.1257 38.8239 70.12 37.2898 70.12 34.9545ZM87.6683 41.7557C91.6399 41.7557 94.1115 39.0369 94.1115 35.0057C94.1115 30.9489 91.6399 28.2386 87.6683 28.2386C83.6967 28.2386 81.2251 30.9489 81.2251 35.0057C81.2251 39.0369 83.6967 41.7557 87.6683 41.7557ZM87.6854 38.9432C85.853 38.9432 84.9155 37.2642 84.9155 34.9801C84.9155 32.696 85.853 31.0085 87.6854 31.0085C89.4837 31.0085 90.4212 32.696 90.4212 34.9801C90.4212 37.2642 89.4837 38.9432 87.6854 38.9432ZM96.4723 41.5H100.103V34.0938C100.103 32.483 101.279 31.375 102.881 31.375C103.384 31.375 104.075 31.4602 104.415 31.571V28.3494C104.092 28.2727 103.64 28.2216 103.273 28.2216C101.808 28.2216 100.606 29.0739 100.129 30.6932H99.9922V28.4091H96.4723V41.5ZM113.912 28.4091H111.449V25.2727H107.818V28.4091H106.028V31.1364H107.818V37.9545C107.801 40.5199 109.548 41.7898 112.182 41.679C113.119 41.6449 113.784 41.4574 114.151 41.3381L113.58 38.6364C113.401 38.6705 113.017 38.7557 112.676 38.7557C111.952 38.7557 111.449 38.483 111.449 37.4773V31.1364H113.912V28.4091ZM121.9 41.5H125.59V35.8409H128.692C132.707 35.8409 135.042 33.446 135.042 29.9602C135.042 26.4915 132.749 24.0455 128.786 24.0455H121.9V41.5ZM125.59 32.8835V27.0625H128.079C130.21 27.0625 131.241 28.2216 131.241 29.9602C131.241 31.6903 130.21 32.8835 128.096 32.8835H125.59ZM137.371 41.5H141.001V34.0938C141.001 32.483 142.178 31.375 143.78 31.375C144.283 31.375 144.973 31.4602 145.314 31.571V28.3494C144.99 28.2727 144.538 28.2216 144.172 28.2216C142.706 28.2216 141.504 29.0739 141.027 30.6932H140.891V28.4091H137.371V41.5ZM152.496 41.7557C156.468 41.7557 158.94 39.0369 158.94 35.0057C158.94 30.9489 156.468 28.2386 152.496 28.2386C148.525 28.2386 146.053 30.9489 146.053 35.0057C146.053 39.0369 148.525 41.7557 152.496 41.7557ZM152.513 38.9432C150.681 38.9432 149.744 37.2642 149.744 34.9801C149.744 32.696 150.681 31.0085 152.513 31.0085C154.312 31.0085 155.249 32.696 155.249 34.9801C155.249 37.2642 154.312 38.9432 152.513 38.9432ZM167.198 46.6818C170.94 46.6818 173.599 44.9773 173.599 41.6278V28.4091H169.994V30.608H169.857C169.371 29.5426 168.306 28.2386 166.116 28.2386C163.244 28.2386 160.815 30.4716 160.815 34.929C160.815 39.2841 163.175 41.3125 166.124 41.3125C168.212 41.3125 169.38 40.2642 169.857 39.1818H170.011V41.5767C170.011 43.375 168.86 44.0739 167.283 44.0739C165.681 44.0739 164.871 43.375 164.573 42.5824L161.215 43.0341C161.65 45.0966 163.67 46.6818 167.198 46.6818ZM167.275 38.5852C165.494 38.5852 164.522 37.1705 164.522 34.9119C164.522 32.6875 165.477 31.1278 167.275 31.1278C169.039 31.1278 170.028 32.6193 170.028 34.9119C170.028 37.2216 169.022 38.5852 167.275 38.5852ZM176.488 41.5H180.119V34.0938C180.119 32.483 181.295 31.375 182.897 31.375C183.4 31.375 184.09 31.4602 184.431 31.571V28.3494C184.107 28.2727 183.656 28.2216 183.289 28.2216C181.823 28.2216 180.621 29.0739 180.144 30.6932H180.008V28.4091H176.488V41.5ZM191.665 41.7557C194.903 41.7557 197.085 40.179 197.597 37.75L194.239 37.5284C193.872 38.5256 192.935 39.0455 191.724 39.0455C189.909 39.0455 188.759 37.8438 188.759 35.892V35.8835H197.673V34.8864C197.673 30.4375 194.98 28.2386 191.52 28.2386C187.668 28.2386 185.17 30.9744 185.17 35.0142C185.17 39.1648 187.634 41.7557 191.665 41.7557ZM188.759 33.6335C188.835 32.142 189.969 30.9489 191.58 30.9489C193.156 30.9489 194.247 32.0739 194.256 33.6335H188.759ZM210.935 32.142C210.611 29.7301 208.668 28.2386 205.361 28.2386C202.011 28.2386 199.804 29.7898 199.812 32.3125C199.804 34.2727 201.04 35.5426 203.597 36.054L205.864 36.5057C207.006 36.7358 207.526 37.1534 207.543 37.8097C207.526 38.5852 206.682 39.1392 205.412 39.1392C204.116 39.1392 203.256 38.5852 203.034 37.5199L199.463 37.7074C199.804 40.2131 201.935 41.7557 205.403 41.7557C208.795 41.7557 211.224 40.0256 211.233 37.4432C211.224 35.5511 209.989 34.4176 207.449 33.8977L205.08 33.4205C203.861 33.1562 203.409 32.7386 203.418 32.108C203.409 31.3239 204.295 30.8125 205.42 30.8125C206.682 30.8125 207.432 31.5028 207.611 32.3466L210.935 32.142ZM224.411 32.142C224.087 29.7301 222.144 28.2386 218.837 28.2386C215.488 28.2386 213.281 29.7898 213.289 32.3125C213.281 34.2727 214.516 35.5426 217.073 36.054L219.34 36.5057C220.482 36.7358 221.002 37.1534 221.019 37.8097C221.002 38.5852 220.158 39.1392 218.888 39.1392C217.593 39.1392 216.732 38.5852 216.511 37.5199L212.94 37.7074C213.281 40.2131 215.411 41.7557 218.88 41.7557C222.272 41.7557 224.701 40.0256 224.71 37.4432C224.701 35.5511 223.465 34.4176 220.925 33.8977L218.556 33.4205C217.337 33.1562 216.886 32.7386 216.894 32.108C216.886 31.3239 217.772 30.8125 218.897 30.8125C220.158 30.8125 220.908 31.5028 221.087 32.3466L224.411 32.142Z" fill="#FFFBEB"/>
<g filter="url(#filter1_dd)">
<rect x="237.5" y="20.5" width="162" height="24" rx="5" fill="#FBBF24"/>
<g clip-path="url(#clip0)">
<path d="M253.328 32.375C253.328 29.4531 250.922 27.0469 248 27.0469C245.057 27.0469 242.672 29.4531 242.672 32.375C242.672 35.3184 245.057 37.7031 248 37.7031C250.922 37.7031 253.328 35.3184 253.328 32.375ZM247.377 35.2109C247.248 35.3398 247.012 35.3398 246.883 35.2109L244.648 32.9766C244.52 32.8477 244.52 32.6113 244.648 32.4824L245.143 32.0098C245.271 31.8594 245.486 31.8594 245.615 32.0098L247.141 33.5137L250.363 30.291C250.492 30.1406 250.707 30.1406 250.836 30.291L251.33 30.7637C251.459 30.8926 251.459 31.1289 251.33 31.2578L247.377 35.2109Z" fill="#B45309"/>
</g>
<path d="M255.786 27.7727L258.952 33.0739V36.5H260.264V33.0739L263.43 27.7727H261.935L259.655 31.7401H259.561L257.281 27.7727H255.786ZM266.262 36.6321C268.107 36.6321 269.313 35.2812 269.313 33.2571C269.313 31.2202 268.107 29.8693 266.262 29.8693C264.417 29.8693 263.211 31.2202 263.211 33.2571C263.211 35.2812 264.417 36.6321 266.262 36.6321ZM266.266 35.5625C265.06 35.5625 264.498 34.5099 264.498 33.2528C264.498 32 265.06 30.9347 266.266 30.9347C267.464 30.9347 268.026 32 268.026 33.2528C268.026 34.5099 267.464 35.5625 266.266 35.5625ZM274.882 33.7855C274.886 34.8977 274.059 35.4261 273.343 35.4261C272.555 35.4261 272.01 34.8551 272.01 33.9645V29.9545H270.735V34.1179C270.735 35.7415 271.626 36.5852 272.883 36.5852C273.868 36.5852 274.537 36.0653 274.839 35.3665H274.907V36.5H276.16V29.9545H274.882V33.7855ZM277.872 36.5H279.146V32.5028C279.146 31.6463 279.807 31.0284 280.71 31.0284C280.974 31.0284 281.273 31.0753 281.375 31.1051V29.8864C281.247 29.8693 280.996 29.8565 280.834 29.8565C280.067 29.8565 279.411 30.2912 279.172 30.9943H279.104V29.9545H277.872V36.5ZM285.653 36.5H286.928V29.9545H285.653V36.5ZM286.297 28.9446C286.736 28.9446 287.102 28.6037 287.102 28.1861C287.102 27.7685 286.736 27.4233 286.297 27.4233C285.854 27.4233 285.491 27.7685 285.491 28.1861C285.491 28.6037 285.854 28.9446 286.297 28.9446ZM288.642 36.5H289.916V32.4645C289.916 31.5824 290.534 30.9688 291.258 30.9688C291.966 30.9688 292.456 31.4375 292.456 32.1491V36.5H293.725V32.3281C293.725 31.5398 294.207 30.9688 295.038 30.9688C295.711 30.9688 296.265 31.3438 296.265 32.2301V36.5H297.539V32.1108C297.539 30.6151 296.704 29.8693 295.52 29.8693C294.578 29.8693 293.87 30.321 293.555 31.0199H293.487C293.201 30.304 292.6 29.8693 291.727 29.8693C290.862 29.8693 290.218 30.2997 289.946 31.0199H289.865V29.9545H288.642V36.5ZM299.247 38.9545H300.521V35.4815H300.598C300.828 35.8991 301.297 36.6278 302.49 36.6278C304.075 36.6278 305.226 35.358 305.226 33.2401C305.226 31.1179 304.058 29.8693 302.477 29.8693C301.263 29.8693 300.824 30.6108 300.598 31.0156H300.491V29.9545H299.247V38.9545ZM300.496 33.2273C300.496 31.8594 301.092 30.9517 302.205 30.9517C303.359 30.9517 303.939 31.9276 303.939 33.2273C303.939 34.5398 303.342 35.5412 302.205 35.5412C301.109 35.5412 300.496 34.6037 300.496 33.2273ZM309.411 36.6321C311.256 36.6321 312.462 35.2812 312.462 33.2571C312.462 31.2202 311.256 29.8693 309.411 29.8693C307.565 29.8693 306.359 31.2202 306.359 33.2571C306.359 35.2812 307.565 36.6321 309.411 36.6321ZM309.415 35.5625C308.209 35.5625 307.646 34.5099 307.646 33.2528C307.646 32 308.209 30.9347 309.415 30.9347C310.612 30.9347 311.175 32 311.175 33.2528C311.175 34.5099 310.612 35.5625 309.415 35.5625ZM313.884 36.5H315.158V32.5028C315.158 31.6463 315.819 31.0284 316.722 31.0284C316.986 31.0284 317.284 31.0753 317.387 31.1051V29.8864C317.259 29.8693 317.007 29.8565 316.846 29.8565C316.078 29.8565 315.422 30.2912 315.184 30.9943H315.115V29.9545H313.884V36.5ZM321.931 29.9545H320.589V28.3864H319.315V29.9545H318.356V30.9773H319.315V34.8423C319.311 36.0312 320.218 36.6065 321.224 36.5852C321.629 36.581 321.902 36.5043 322.051 36.4489L321.821 35.3963C321.735 35.4134 321.578 35.4517 321.373 35.4517C320.96 35.4517 320.589 35.3153 320.589 34.5781V30.9773H321.931V29.9545ZM326.517 36.5H327.791V29.9545H326.517V36.5ZM327.16 28.9446C327.599 28.9446 327.966 28.6037 327.966 28.1861C327.966 27.7685 327.599 27.4233 327.16 27.4233C326.717 27.4233 326.355 27.7685 326.355 28.1861C326.355 28.6037 326.717 28.9446 327.16 28.9446ZM334.41 31.5526C334.146 30.5341 333.349 29.8693 331.934 29.8693C330.455 29.8693 329.407 30.6491 329.407 31.8082C329.407 32.7372 329.969 33.3551 331.197 33.6278L332.305 33.8707C332.935 34.0114 333.229 34.2926 333.229 34.7017C333.229 35.2088 332.688 35.6051 331.853 35.6051C331.09 35.6051 330.6 35.277 330.447 34.6335L329.215 34.821C329.428 35.9801 330.391 36.6321 331.862 36.6321C333.442 36.6321 334.538 35.7926 334.538 34.608C334.538 33.6832 333.95 33.1122 332.748 32.8352L331.708 32.5966C330.988 32.4261 330.677 32.1832 330.681 31.7401C330.677 31.2372 331.222 30.8793 331.947 30.8793C332.739 30.8793 333.106 31.3182 333.255 31.7571L334.41 31.5526ZM341.871 36.6321C343.418 36.6321 344.42 35.7031 344.56 34.429H343.32C343.158 35.1364 342.609 35.554 341.88 35.554C340.802 35.554 340.107 34.6548 340.107 33.2273C340.107 31.8253 340.815 30.9432 341.88 30.9432C342.69 30.9432 343.184 31.4545 343.32 32.0682H344.56C344.424 30.7472 343.346 29.8693 341.859 29.8693C340.013 29.8693 338.82 31.2585 338.82 33.2571C338.82 35.2301 339.971 36.6321 341.871 36.6321ZM348.68 36.6321C350.525 36.6321 351.731 35.2812 351.731 33.2571C351.731 31.2202 350.525 29.8693 348.68 29.8693C346.835 29.8693 345.629 31.2202 345.629 33.2571C345.629 35.2812 346.835 36.6321 348.68 36.6321ZM348.684 35.5625C347.478 35.5625 346.916 34.5099 346.916 33.2528C346.916 32 347.478 30.9347 348.684 30.9347C349.882 30.9347 350.444 32 350.444 33.2528C350.444 34.5099 349.882 35.5625 348.684 35.5625ZM353.153 36.5H354.428V32.4645C354.428 31.5824 355.045 30.9688 355.77 30.9688C356.477 30.9688 356.967 31.4375 356.967 32.1491V36.5H358.237V32.3281C358.237 31.5398 358.719 30.9688 359.55 30.9688C360.223 30.9688 360.777 31.3438 360.777 32.2301V36.5H362.051V32.1108C362.051 30.6151 361.216 29.8693 360.031 29.8693C359.089 29.8693 358.382 30.321 358.067 31.0199H357.999C357.713 30.304 357.112 29.8693 356.239 29.8693C355.374 29.8693 354.73 30.2997 354.457 31.0199H354.376V29.9545H353.153V36.5ZM363.759 38.9545H365.033V35.4815H365.11C365.34 35.8991 365.809 36.6278 367.002 36.6278C368.587 36.6278 369.738 35.358 369.738 33.2401C369.738 31.1179 368.57 29.8693 366.989 29.8693C365.775 29.8693 365.336 30.6108 365.11 31.0156H365.003V29.9545H363.759V38.9545ZM365.007 33.2273C365.007 31.8594 365.604 30.9517 366.716 30.9517C367.871 30.9517 368.451 31.9276 368.451 33.2273C368.451 34.5398 367.854 35.5412 366.716 35.5412C365.621 35.5412 365.007 34.6037 365.007 33.2273ZM372.439 27.7727H371.165V36.5H372.439V27.7727ZM376.974 36.6321C378.402 36.6321 379.412 35.929 379.702 34.8636L378.496 34.6463C378.266 35.2642 377.712 35.5795 376.987 35.5795C375.896 35.5795 375.163 34.8722 375.129 33.6108H379.783V33.1591C379.783 30.794 378.368 29.8693 376.885 29.8693C375.061 29.8693 373.859 31.2585 373.859 33.2699C373.859 35.3026 375.044 36.6321 376.974 36.6321ZM375.134 32.6562C375.185 31.7273 375.858 30.9219 376.893 30.9219C377.882 30.9219 378.53 31.6548 378.534 32.6562H375.134ZM384.252 29.9545H382.909V28.3864H381.635V29.9545H380.676V30.9773H381.635V34.8423C381.631 36.0312 382.539 36.6065 383.544 36.5852C383.949 36.581 384.222 36.5043 384.371 36.4489L384.141 35.3963C384.056 35.4134 383.898 35.4517 383.694 35.4517C383.28 35.4517 382.909 35.3153 382.909 34.5781V30.9773H384.252V29.9545ZM388.412 36.6321C389.839 36.6321 390.849 35.929 391.139 34.8636L389.933 34.6463C389.703 35.2642 389.149 35.5795 388.425 35.5795C387.334 35.5795 386.601 34.8722 386.567 33.6108H391.22V33.1591C391.22 30.794 389.805 29.8693 388.322 29.8693C386.499 29.8693 385.297 31.2585 385.297 33.2699C385.297 35.3026 386.482 36.6321 388.412 36.6321ZM386.571 32.6562C386.622 31.7273 387.295 30.9219 388.331 30.9219C389.32 30.9219 389.967 31.6548 389.972 32.6562H386.571ZM394.24 27.7727H392.838L392.949 33.9901H394.13L394.24 27.7727ZM393.537 36.581C394.002 36.581 394.39 36.2017 394.39 35.7287C394.39 35.2642 394.002 34.8807 393.537 34.8807C393.069 34.8807 392.685 35.2642 392.685 35.7287C392.685 36.2017 393.069 36.581 393.537 36.581Z" fill="#B45309"/>
</g>
<path d="M40.0227 79.5H41.4773L44.0455 70.2273H44.1364L46.7045 79.5H48.1591L51.3409 67.8636H49.9091L47.4773 77.3409H47.3636L44.8864 67.8636H43.2955L40.8182 77.3409H40.7045L38.2727 67.8636H36.8409L40.0227 79.5ZM55.7614 79.6818C57.5341 79.6818 58.8295 78.7955 59.2386 77.4773L57.9432 77.1136C57.6023 78.0227 56.8125 78.4773 55.7614 78.4773C54.1875 78.4773 53.1023 77.4602 53.0398 75.5909H59.375V75.0227C59.375 71.7727 57.4432 70.6591 55.625 70.6591C53.2614 70.6591 51.6932 72.5227 51.6932 75.2045C51.6932 77.8864 53.2386 79.6818 55.7614 79.6818ZM53.0398 74.4318C53.1307 73.0739 54.0909 71.8636 55.625 71.8636C57.0795 71.8636 58.0114 72.9545 58.0114 74.4318H53.0398ZM62.5966 67.8636H61.3239V68.9091C61.3239 69.75 60.9148 70.4773 60.4375 71.1591L61.1648 71.75C62.0739 71.0227 62.5966 69.8182 62.5966 68.8864V67.8636ZM71.7386 70.7727H70.2841L67.875 77.7273H67.7841L65.375 70.7727H63.9205L67.1477 79.5H68.5114L71.7386 70.7727ZM76.8551 79.6818C78.6278 79.6818 79.9233 78.7955 80.3324 77.4773L79.0369 77.1136C78.696 78.0227 77.9062 78.4773 76.8551 78.4773C75.2812 78.4773 74.196 77.4602 74.1335 75.5909H80.4688V75.0227C80.4688 71.7727 78.5369 70.6591 76.7188 70.6591C74.3551 70.6591 72.7869 72.5227 72.7869 75.2045C72.7869 77.8864 74.3324 79.6818 76.8551 79.6818ZM74.1335 74.4318C74.2244 73.0739 75.1847 71.8636 76.7188 71.8636C78.1733 71.8636 79.1051 72.9545 79.1051 74.4318H74.1335ZM87.0085 79.5H88.3494V70.7727H87.0085V79.5ZM87.6903 69.3182C88.2131 69.3182 88.6449 68.9091 88.6449 68.4091C88.6449 67.9091 88.2131 67.5 87.6903 67.5C87.1676 67.5 86.7358 67.9091 86.7358 68.4091C86.7358 68.9091 87.1676 69.3182 87.6903 69.3182ZM90.8054 79.5H92.1463V74.0455C92.1463 72.767 93.0781 71.8636 94.1236 71.8636C95.1406 71.8636 95.8509 72.5284 95.8509 73.5227V79.5H97.2145V73.8182C97.2145 72.6932 97.919 71.8636 99.1463 71.8636C100.101 71.8636 100.919 72.3693 100.919 73.6591V79.5H102.26V73.6591C102.26 71.608 101.158 70.6591 99.6009 70.6591C98.3509 70.6591 97.4361 71.233 96.9872 72.1364H96.8963C96.4645 71.2045 95.7031 70.6591 94.5554 70.6591C93.419 70.6591 92.5781 71.2045 92.2145 72.1364H92.1009V70.7727H90.8054V79.5ZM104.712 82.7727H106.053V78.1591H106.166C106.462 78.6364 107.03 79.6818 108.712 79.6818C110.893 79.6818 112.416 77.9318 112.416 75.1591C112.416 72.4091 110.893 70.6591 108.689 70.6591C106.984 70.6591 106.462 71.7045 106.166 72.1591H106.007V70.7727H104.712V82.7727ZM106.03 75.1364C106.03 73.1818 106.893 71.8636 108.53 71.8636C110.234 71.8636 111.075 73.2955 111.075 75.1364C111.075 77 110.212 78.4773 108.53 78.4773C106.916 78.4773 106.03 77.1136 106.03 75.1364ZM118.007 79.6818C120.371 79.6818 121.962 77.8864 121.962 75.1818C121.962 72.4545 120.371 70.6591 118.007 70.6591C115.643 70.6591 114.053 72.4545 114.053 75.1818C114.053 77.8864 115.643 79.6818 118.007 79.6818ZM118.007 78.4773C116.212 78.4773 115.393 76.9318 115.393 75.1818C115.393 73.4318 116.212 71.8636 118.007 71.8636C119.803 71.8636 120.621 73.4318 120.621 75.1818C120.621 76.9318 119.803 78.4773 118.007 78.4773ZM124.009 79.5H125.349V73.9773C125.349 72.7955 126.281 71.9318 127.554 71.9318C127.912 71.9318 128.281 72 128.372 72.0227V70.6591C128.219 70.6477 127.866 70.6364 127.668 70.6364C126.622 70.6364 125.713 71.2273 125.395 72.0909H125.304V70.7727H124.009V79.5ZM134.304 70.7727H132.44V68.6818H131.099V70.7727H129.781V71.9091H131.099V77.3636C131.099 78.8864 132.327 79.6136 133.463 79.6136C133.963 79.6136 134.281 79.5227 134.463 79.4545L134.19 78.25C134.077 78.2727 133.895 78.3182 133.599 78.3182C133.009 78.3182 132.44 78.1364 132.44 77V71.9091H134.304V70.7727ZM139.886 79.6818C141.659 79.6818 142.955 78.7955 143.364 77.4773L142.068 77.1136C141.727 78.0227 140.938 78.4773 139.886 78.4773C138.312 78.4773 137.227 77.4602 137.165 75.5909H143.5V75.0227C143.5 71.7727 141.568 70.6591 139.75 70.6591C137.386 70.6591 135.818 72.5227 135.818 75.2045C135.818 77.8864 137.364 79.6818 139.886 79.6818ZM137.165 74.4318C137.256 73.0739 138.216 71.8636 139.75 71.8636C141.205 71.8636 142.136 72.9545 142.136 74.4318H137.165ZM148.835 79.6818C150.517 79.6818 151.085 78.6364 151.381 78.1591H151.54V79.5H152.835V67.8636H151.494V72.1591H151.381C151.085 71.7045 150.562 70.6591 148.858 70.6591C146.653 70.6591 145.131 72.4091 145.131 75.1591C145.131 77.9318 146.653 79.6818 148.835 79.6818ZM149.017 78.4773C147.335 78.4773 146.472 77 146.472 75.1364C146.472 73.2955 147.312 71.8636 149.017 71.8636C150.653 71.8636 151.517 73.1818 151.517 75.1364C151.517 77.1136 150.631 78.4773 149.017 78.4773Z" fill="#FFFBEB"/>
<g filter="url(#filter2_dd)">
<rect x="160.5" y="59.5" width="78" height="28" rx="5" fill="#4F46E5"/>
<path d="M170.651 68.7727H169.368L167.19 70.196V71.4574L169.278 70.0938H169.33V77.5H170.651V68.7727ZM174.194 76.3068H172.967L172.924 76.7841C172.826 77.9389 172.553 79.1023 172.438 79.6307H173.342C173.546 79.0724 173.998 77.794 174.13 76.7713L174.194 76.3068ZM175.976 77.5H181.721V76.3707H177.792V76.3068L179.526 74.4915C181.124 72.8764 181.58 72.1051 181.58 71.1293C181.58 69.7273 180.438 68.6534 178.793 68.6534C177.161 68.6534 175.968 69.7102 175.968 71.304H177.225C177.221 70.3665 177.826 69.7528 178.767 69.7528C179.654 69.7528 180.327 70.2983 180.327 71.1676C180.327 71.9389 179.867 72.4929 178.929 73.4858L175.976 76.5455V77.5ZM186.647 68.7727H185.364L183.186 70.196V71.4574L185.275 70.0938H185.326V77.5H186.647V68.7727ZM192.319 68.7727H191.036L188.858 70.196V71.4574L190.946 70.0938H190.998V77.5H192.319V68.7727ZM197.974 77.5H201.32C203.348 77.5 204.264 76.4901 204.264 75.152C204.264 73.8011 203.318 73.0384 202.453 72.9915V72.9062C203.254 72.7017 203.923 72.1562 203.923 71.0653C203.923 69.7741 203.028 68.7727 201.17 68.7727H197.974V77.5ZM199.291 76.3707V73.5753H201.239C202.295 73.5753 202.956 74.2571 202.956 75.0881C202.956 75.821 202.457 76.3707 201.192 76.3707H199.291ZM199.291 72.5483V69.8935H201.089C202.134 69.8935 202.632 70.4432 202.632 71.1676C202.632 72.0114 201.942 72.5483 201.055 72.5483H199.291ZM208.481 77.6321C210.326 77.6321 211.532 76.2812 211.532 74.2571C211.532 72.2202 210.326 70.8693 208.481 70.8693C206.636 70.8693 205.43 72.2202 205.43 74.2571C205.43 76.2812 206.636 77.6321 208.481 77.6321ZM208.485 76.5625C207.279 76.5625 206.717 75.5099 206.717 74.2528C206.717 73 207.279 71.9347 208.485 71.9347C209.683 71.9347 210.245 73 210.245 74.2528C210.245 75.5099 209.683 76.5625 208.485 76.5625ZM215.711 77.6321C217.556 77.6321 218.762 76.2812 218.762 74.2571C218.762 72.2202 217.556 70.8693 215.711 70.8693C213.866 70.8693 212.66 72.2202 212.66 74.2571C212.66 76.2812 213.866 77.6321 215.711 77.6321ZM215.716 76.5625C214.51 76.5625 213.947 75.5099 213.947 74.2528C213.947 73 214.51 71.9347 215.716 71.9347C216.913 71.9347 217.475 73 217.475 74.2528C217.475 75.5099 216.913 76.5625 215.716 76.5625ZM220.185 77.5H221.459V75.1776L222.094 74.5426L224.318 77.5H225.882L223.053 73.7628L225.703 70.9545H224.178L221.57 73.7244H221.459V68.7727H220.185V77.5ZM231.769 72.5526C231.505 71.5341 230.708 70.8693 229.293 70.8693C227.815 70.8693 226.766 71.6491 226.766 72.8082C226.766 73.7372 227.329 74.3551 228.556 74.6278L229.664 74.8707C230.295 75.0114 230.589 75.2926 230.589 75.7017C230.589 76.2088 230.048 76.6051 229.212 76.6051C228.45 76.6051 227.96 76.277 227.806 75.6335L226.575 75.821C226.788 76.9801 227.751 77.6321 229.221 77.6321C230.802 77.6321 231.897 76.7926 231.897 75.608C231.897 74.6832 231.309 74.1122 230.107 73.8352L229.067 73.5966C228.347 73.4261 228.036 73.1832 228.04 72.7401C228.036 72.2372 228.582 71.8793 229.306 71.8793C230.099 71.8793 230.465 72.3182 230.614 72.7571L231.769 72.5526Z" fill="#FFFBEB"/>
</g>
<path d="M245.727 79.5H247.068V70.7727H245.727V79.5ZM246.409 69.3182C246.932 69.3182 247.364 68.9091 247.364 68.4091C247.364 67.9091 246.932 67.5 246.409 67.5C245.886 67.5 245.455 67.9091 245.455 68.4091C245.455 68.9091 245.886 69.3182 246.409 69.3182ZM250.865 74.25C250.865 72.7273 251.808 71.8636 253.092 71.8636C254.337 71.8636 255.092 72.6761 255.092 74.0455V79.5H256.433V73.9545C256.433 71.7273 255.246 70.6591 253.479 70.6591C252.161 70.6591 251.342 71.25 250.933 72.1364H250.82V70.7727H249.524V79.5H250.865V74.25ZM262.679 70.7727H260.815V68.6818H259.474V70.7727H258.156V71.9091H259.474V77.3636C259.474 78.8864 260.702 79.6136 261.838 79.6136C262.338 79.6136 262.656 79.5227 262.838 79.4545L262.565 78.25C262.452 78.2727 262.27 78.3182 261.974 78.3182C261.384 78.3182 260.815 78.1364 260.815 77V71.9091H262.679V70.7727ZM268.148 79.6818C270.511 79.6818 272.102 77.8864 272.102 75.1818C272.102 72.4545 270.511 70.6591 268.148 70.6591C265.784 70.6591 264.193 72.4545 264.193 75.1818C264.193 77.8864 265.784 79.6818 268.148 79.6818ZM268.148 78.4773C266.352 78.4773 265.534 76.9318 265.534 75.1818C265.534 73.4318 266.352 71.8636 268.148 71.8636C269.943 71.8636 270.761 73.4318 270.761 75.1818C270.761 76.9318 269.943 78.4773 268.148 78.4773ZM279.513 82.7727C280.723 82.7727 281.575 82.1307 282.081 80.7727L285.797 70.7955L284.331 70.7727L281.922 77.7273H281.831L279.422 70.7727H277.967L281.195 79.5455L280.945 80.2273C280.456 81.5568 279.854 81.6818 278.876 81.4318L278.536 82.6136C278.672 82.6818 279.058 82.7727 279.513 82.7727ZM290.804 79.6818C293.168 79.6818 294.759 77.8864 294.759 75.1818C294.759 72.4545 293.168 70.6591 290.804 70.6591C288.44 70.6591 286.849 72.4545 286.849 75.1818C286.849 77.8864 288.44 79.6818 290.804 79.6818ZM290.804 78.4773C289.009 78.4773 288.19 76.9318 288.19 75.1818C288.19 73.4318 289.009 71.8636 290.804 71.8636C292.599 71.8636 293.418 73.4318 293.418 75.1818C293.418 76.9318 292.599 78.4773 290.804 78.4773ZM302.305 75.9318C302.305 77.5682 301.055 78.3182 300.055 78.3182C298.942 78.3182 298.146 77.5 298.146 76.2273V70.7727H296.805V76.3182C296.805 78.5455 297.987 79.6136 299.624 79.6136C300.942 79.6136 301.805 78.9091 302.214 78.0227H302.305V79.5H303.646V70.7727H302.305V75.9318ZM306.102 79.5H307.443V73.9773C307.443 72.7955 308.375 71.9318 309.648 71.9318C310.006 71.9318 310.375 72 310.466 72.0227V70.6591C310.312 70.6477 309.96 70.6364 309.761 70.6364C308.716 70.6364 307.807 71.2273 307.489 72.0909H307.398V70.7727H306.102V79.5ZM319.124 79.7045C320.646 79.7045 321.442 78.8864 321.714 78.3182H321.783V79.5H323.124V73.75C323.124 70.9773 321.01 70.6591 319.896 70.6591C318.578 70.6591 317.078 71.1136 316.396 72.7045L317.669 73.1591C317.964 72.5227 318.663 71.8409 319.942 71.8409C321.175 71.8409 321.783 72.4943 321.783 73.6136V73.6591C321.783 74.3068 321.124 74.25 319.533 74.4545C317.913 74.6648 316.146 75.0227 316.146 77.0227C316.146 78.7273 317.464 79.7045 319.124 79.7045ZM319.328 78.5C318.26 78.5 317.487 78.0227 317.487 77.0909C317.487 76.0682 318.419 75.75 319.464 75.6136C320.033 75.5455 321.555 75.3864 321.783 75.1136V76.3409C321.783 77.4318 320.919 78.5 319.328 78.5ZM329.116 79.6818C331.048 79.6818 332.321 78.5 332.548 76.9545H331.207C330.957 77.9091 330.162 78.4773 329.116 78.4773C327.526 78.4773 326.503 77.1591 326.503 75.1364C326.503 73.1591 327.548 71.8636 329.116 71.8636C330.298 71.8636 331.003 72.5909 331.207 73.3864H332.548C332.321 71.75 330.935 70.6591 329.094 70.6591C326.73 70.6591 325.162 72.5227 325.162 75.1818C325.162 77.7955 326.662 79.6818 329.116 79.6818ZM338.054 79.6818C339.986 79.6818 341.259 78.5 341.486 76.9545H340.145C339.895 77.9091 339.099 78.4773 338.054 78.4773C336.463 78.4773 335.44 77.1591 335.44 75.1364C335.44 73.1591 336.486 71.8636 338.054 71.8636C339.236 71.8636 339.94 72.5909 340.145 73.3864H341.486C341.259 71.75 339.872 70.6591 338.031 70.6591C335.668 70.6591 334.099 72.5227 334.099 75.1818C334.099 77.7955 335.599 79.6818 338.054 79.6818ZM346.991 79.6818C349.355 79.6818 350.946 77.8864 350.946 75.1818C350.946 72.4545 349.355 70.6591 346.991 70.6591C344.628 70.6591 343.037 72.4545 343.037 75.1818C343.037 77.8864 344.628 79.6818 346.991 79.6818ZM346.991 78.4773C345.196 78.4773 344.378 76.9318 344.378 75.1818C344.378 73.4318 345.196 71.8636 346.991 71.8636C348.787 71.8636 349.605 73.4318 349.605 75.1818C349.605 76.9318 348.787 78.4773 346.991 78.4773ZM358.493 75.9318C358.493 77.5682 357.243 78.3182 356.243 78.3182C355.129 78.3182 354.334 77.5 354.334 76.2273V70.7727H352.993V76.3182C352.993 78.5455 354.175 79.6136 355.811 79.6136C357.129 79.6136 357.993 78.9091 358.402 78.0227H358.493V79.5H359.834V70.7727H358.493V75.9318ZM363.631 74.25C363.631 72.7273 364.574 71.8636 365.858 71.8636C367.102 71.8636 367.858 72.6761 367.858 74.0455V79.5H369.199V73.9545C369.199 71.7273 368.011 70.6591 366.244 70.6591C364.926 70.6591 364.108 71.25 363.699 72.1364H363.585V70.7727H362.29V79.5H363.631V74.25ZM375.445 70.7727H373.581V68.6818H372.24V70.7727H370.922V71.9091H372.24V77.3636C372.24 78.8864 373.467 79.6136 374.604 79.6136C375.104 79.6136 375.422 79.5227 375.604 79.4545L375.331 78.25C375.217 78.2727 375.036 78.3182 374.74 78.3182C374.149 78.3182 373.581 78.1364 373.581 77V71.9091H375.445V70.7727ZM378.439 79.5909C379.001 79.5909 379.462 79.1307 379.462 78.5682C379.462 78.0057 379.001 77.5455 378.439 77.5455C377.876 77.5455 377.416 78.0057 377.416 78.5682C377.416 79.1307 377.876 79.5909 378.439 79.5909Z" fill="#FFFBEB"/>
<g filter="url(#filter3_dd)">
<rect x="36.5" y="98.5" width="170" height="28" rx="5" fill="#047857"/>
<path d="M46.6506 107.773H45.3679L43.1903 109.196V110.457L45.2784 109.094H45.3295V116.5H46.6506V107.773ZM50.1939 115.307H48.9666L48.924 115.784C48.826 116.939 48.5533 118.102 48.4382 118.631H49.3416C49.5462 118.072 49.9979 116.794 50.13 115.771L50.1939 115.307ZM51.9762 116.5H57.7205V115.371H53.7915V115.307L55.5259 113.491C57.1239 111.876 57.5799 111.105 57.5799 110.129C57.5799 108.727 56.4379 107.653 54.793 107.653C53.1609 107.653 51.9677 108.71 51.9677 110.304H53.2248C53.2205 109.366 53.8256 108.753 54.7674 108.753C55.6538 108.753 56.3271 109.298 56.3271 110.168C56.3271 110.939 55.8668 111.493 54.9293 112.486L51.9762 115.545V116.5ZM62.6467 107.773H61.364L59.1864 109.196V110.457L61.2745 109.094H61.3256V116.5H62.6467V107.773ZM68.3185 107.773H67.0359L64.8583 109.196V110.457L66.9464 109.094H66.9975V116.5H68.3185V107.773ZM73.8722 116.5H75.1463V109.955H73.8722V116.5ZM74.5156 108.945C74.9545 108.945 75.321 108.604 75.321 108.186C75.321 107.768 74.9545 107.423 74.5156 107.423C74.0724 107.423 73.7102 107.768 73.7102 108.186C73.7102 108.604 74.0724 108.945 74.5156 108.945ZM76.8604 116.5H78.1346V112.464C78.1346 111.582 78.7525 110.969 79.4769 110.969C80.1843 110.969 80.6744 111.438 80.6744 112.149V116.5H81.9442V112.328C81.9442 111.54 82.4258 110.969 83.2567 110.969C83.93 110.969 84.484 111.344 84.484 112.23V116.5H85.7582V112.111C85.7582 110.615 84.9229 109.869 83.7383 109.869C82.7965 109.869 82.0891 110.321 81.7738 111.02H81.7056C81.4201 110.304 80.8192 109.869 79.9457 109.869C79.0806 109.869 78.4371 110.3 78.1644 111.02H78.0835V109.955H76.8604V116.5ZM87.4659 118.955H88.7401V115.482H88.8168C89.0469 115.899 89.5156 116.628 90.7088 116.628C92.294 116.628 93.4446 115.358 93.4446 113.24C93.4446 111.118 92.277 109.869 90.696 109.869C89.4815 109.869 89.0426 110.611 88.8168 111.016H88.7102V109.955H87.4659V118.955ZM88.7145 113.227C88.7145 111.859 89.3111 110.952 90.4233 110.952C91.5781 110.952 92.1577 111.928 92.1577 113.227C92.1577 114.54 91.5611 115.541 90.4233 115.541C89.3281 115.541 88.7145 114.604 88.7145 113.227ZM97.6293 116.632C99.4744 116.632 100.68 115.281 100.68 113.257C100.68 111.22 99.4744 109.869 97.6293 109.869C95.7841 109.869 94.5781 111.22 94.5781 113.257C94.5781 115.281 95.7841 116.632 97.6293 116.632ZM97.6335 115.562C96.4276 115.562 95.8651 114.51 95.8651 113.253C95.8651 112 96.4276 110.935 97.6335 110.935C98.831 110.935 99.3935 112 99.3935 113.253C99.3935 114.51 98.831 115.562 97.6335 115.562ZM102.103 116.5H103.377V112.503C103.377 111.646 104.037 111.028 104.941 111.028C105.205 111.028 105.503 111.075 105.605 111.105V109.886C105.478 109.869 105.226 109.857 105.064 109.857C104.297 109.857 103.641 110.291 103.402 110.994H103.334V109.955H102.103V116.5ZM110.15 109.955H108.808V108.386H107.534V109.955H106.575V110.977H107.534V114.842C107.529 116.031 108.437 116.607 109.443 116.585C109.848 116.581 110.12 116.504 110.27 116.449L110.039 115.396C109.954 115.413 109.797 115.452 109.592 115.452C109.179 115.452 108.808 115.315 108.808 114.578V110.977H110.15V109.955ZM114.31 116.632C115.738 116.632 116.748 115.929 117.038 114.864L115.832 114.646C115.602 115.264 115.048 115.58 114.323 115.58C113.232 115.58 112.499 114.872 112.465 113.611H117.119V113.159C117.119 110.794 115.704 109.869 114.221 109.869C112.397 109.869 111.195 111.259 111.195 113.27C111.195 115.303 112.38 116.632 114.31 116.632ZM112.469 112.656C112.521 111.727 113.194 110.922 114.229 110.922C115.218 110.922 115.866 111.655 115.87 112.656H112.469ZM120.983 116.628C122.176 116.628 122.645 115.899 122.875 115.482H122.981V116.5H124.225V107.773H122.951V111.016H122.875C122.645 110.611 122.21 109.869 120.991 109.869C119.41 109.869 118.247 111.118 118.247 113.24C118.247 115.358 119.393 116.628 120.983 116.628ZM121.264 115.541C120.126 115.541 119.534 114.54 119.534 113.227C119.534 111.928 120.113 110.952 121.264 110.952C122.376 110.952 122.973 111.859 122.973 113.227C122.973 114.604 122.363 115.541 121.264 115.541ZM134.125 111.553C133.86 110.534 133.064 109.869 131.649 109.869C130.17 109.869 129.122 110.649 129.122 111.808C129.122 112.737 129.684 113.355 130.912 113.628L132.02 113.871C132.65 114.011 132.944 114.293 132.944 114.702C132.944 115.209 132.403 115.605 131.568 115.605C130.805 115.605 130.315 115.277 130.162 114.634L128.93 114.821C129.143 115.98 130.106 116.632 131.576 116.632C133.157 116.632 134.252 115.793 134.252 114.608C134.252 113.683 133.664 113.112 132.463 112.835L131.423 112.597C130.703 112.426 130.392 112.183 130.396 111.74C130.392 111.237 130.937 110.879 131.662 110.879C132.454 110.879 132.821 111.318 132.97 111.757L134.125 111.553ZM139.8 113.786C139.804 114.898 138.977 115.426 138.261 115.426C137.473 115.426 136.928 114.855 136.928 113.964V109.955H135.653V114.118C135.653 115.741 136.544 116.585 137.801 116.585C138.786 116.585 139.455 116.065 139.757 115.366H139.825V116.5H141.078V109.955H139.8V113.786ZM145.547 116.632C147.094 116.632 148.096 115.703 148.236 114.429H146.996C146.834 115.136 146.284 115.554 145.556 115.554C144.478 115.554 143.783 114.655 143.783 113.227C143.783 111.825 144.49 110.943 145.556 110.943C146.365 110.943 146.86 111.455 146.996 112.068H148.236C148.1 110.747 147.022 109.869 145.534 109.869C143.689 109.869 142.496 111.259 142.496 113.257C142.496 115.23 143.647 116.632 145.547 116.632ZM152.356 116.632C153.903 116.632 154.904 115.703 155.045 114.429H153.805C153.643 115.136 153.093 115.554 152.364 115.554C151.286 115.554 150.592 114.655 150.592 113.227C150.592 111.825 151.299 110.943 152.364 110.943C153.174 110.943 153.668 111.455 153.805 112.068H155.045C154.908 110.747 153.83 109.869 152.343 109.869C150.498 109.869 149.305 111.259 149.305 113.257C149.305 115.23 150.455 116.632 152.356 116.632ZM159.228 116.632C160.656 116.632 161.666 115.929 161.956 114.864L160.75 114.646C160.52 115.264 159.966 115.58 159.241 115.58C158.15 115.58 157.417 114.872 157.383 113.611H162.037V113.159C162.037 110.794 160.622 109.869 159.139 109.869C157.315 109.869 156.113 111.259 156.113 113.27C156.113 115.303 157.298 116.632 159.228 116.632ZM157.387 112.656C157.439 111.727 158.112 110.922 159.147 110.922C160.136 110.922 160.784 111.655 160.788 112.656H157.387ZM168.355 111.553C168.091 110.534 167.294 109.869 165.879 109.869C164.401 109.869 163.352 110.649 163.352 111.808C163.352 112.737 163.915 113.355 165.142 113.628L166.25 113.871C166.881 114.011 167.175 114.293 167.175 114.702C167.175 115.209 166.634 115.605 165.798 115.605C165.036 115.605 164.545 115.277 164.392 114.634L163.161 114.821C163.374 115.98 164.337 116.632 165.807 116.632C167.388 116.632 168.483 115.793 168.483 114.608C168.483 113.683 167.895 113.112 166.693 112.835L165.653 112.597C164.933 112.426 164.622 112.183 164.626 111.74C164.622 111.237 165.168 110.879 165.892 110.879C166.685 110.879 167.051 111.318 167.2 111.757L168.355 111.553ZM174.789 111.553C174.525 110.534 173.728 109.869 172.313 109.869C170.834 109.869 169.786 110.649 169.786 111.808C169.786 112.737 170.348 113.355 171.576 113.628L172.684 113.871C173.314 114.011 173.608 114.293 173.608 114.702C173.608 115.209 173.067 115.605 172.232 115.605C171.469 115.605 170.979 115.277 170.826 114.634L169.594 114.821C169.807 115.98 170.77 116.632 172.24 116.632C173.821 116.632 174.917 115.793 174.917 114.608C174.917 113.683 174.328 113.112 173.127 112.835L172.087 112.597C171.367 112.426 171.056 112.183 171.06 111.74C171.056 111.237 171.601 110.879 172.326 110.879C173.118 110.879 173.485 111.318 173.634 111.757L174.789 111.553ZM179.433 109.955H178.022V109.366C178.022 108.787 178.261 108.472 178.883 108.472C179.147 108.472 179.335 108.531 179.454 108.57L179.752 107.538C179.573 107.47 179.202 107.364 178.687 107.364C177.651 107.364 176.744 107.969 176.744 109.196V109.955H175.734V110.977H176.744V116.5H178.022V110.977H179.433V109.955ZM184.893 113.786C184.898 114.898 184.071 115.426 183.355 115.426C182.567 115.426 182.021 114.855 182.021 113.964V109.955H180.747V114.118C180.747 115.741 181.638 116.585 182.895 116.585C183.879 116.585 184.548 116.065 184.851 115.366H184.919V116.5H186.172V109.955H184.893V113.786ZM189.158 107.773H187.884V116.5H189.158V107.773ZM192.146 107.773H190.872V116.5H192.146V107.773ZM194.666 118.955C195.718 118.955 196.383 118.405 196.762 117.374L199.468 109.967L198.092 109.955L196.434 115.034H196.366L194.708 109.955H193.345L195.74 116.585L195.582 117.02C195.258 117.889 194.802 117.962 194.103 117.77L193.797 118.814C193.95 118.882 194.282 118.955 194.666 118.955Z" fill="#FFFBEB"/>
</g>
<g filter="url(#filter4_dd)">
<rect x="218.5" y="98.5" width="169" height="28" rx="5" fill="#EF4444"/>
<path d="M228.378 116.619C230.159 116.619 231.467 115.554 231.463 114.105C231.467 113.001 230.798 112.209 229.639 112.03V111.962C230.551 111.727 231.143 111.011 231.139 110.031C231.143 108.749 230.091 107.653 228.412 107.653C226.81 107.653 225.523 108.621 225.48 110.04H226.754C226.784 109.239 227.538 108.753 228.395 108.753C229.286 108.753 229.869 109.294 229.865 110.099C229.869 110.943 229.192 111.497 228.224 111.497H227.487V112.571H228.224C229.435 112.571 230.134 113.185 230.134 114.062C230.134 114.911 229.396 115.486 228.369 115.486C227.423 115.486 226.686 115 226.635 114.224H225.297C225.352 115.648 226.614 116.619 228.378 116.619ZM236.369 116.5H239.714C241.743 116.5 242.659 115.49 242.659 114.152C242.659 112.801 241.713 112.038 240.848 111.991V111.906C241.649 111.702 242.318 111.156 242.318 110.065C242.318 108.774 241.423 107.773 239.565 107.773H236.369V116.5ZM237.686 115.371V112.575H239.633C240.69 112.575 241.35 113.257 241.35 114.088C241.35 114.821 240.852 115.371 239.586 115.371H237.686ZM237.686 111.548V108.893H239.484C240.528 108.893 241.027 109.443 241.027 110.168C241.027 111.011 240.336 111.548 239.45 111.548H237.686ZM246.875 116.632C248.721 116.632 249.926 115.281 249.926 113.257C249.926 111.22 248.721 109.869 246.875 109.869C245.03 109.869 243.824 111.22 243.824 113.257C243.824 115.281 245.03 116.632 246.875 116.632ZM246.88 115.562C245.674 115.562 245.111 114.51 245.111 113.253C245.111 112 245.674 110.935 246.88 110.935C248.077 110.935 248.64 112 248.64 113.253C248.64 114.51 248.077 115.562 246.88 115.562ZM254.106 116.632C255.951 116.632 257.157 115.281 257.157 113.257C257.157 111.22 255.951 109.869 254.106 109.869C252.261 109.869 251.055 111.22 251.055 113.257C251.055 115.281 252.261 116.632 254.106 116.632ZM254.11 115.562C252.904 115.562 252.342 114.51 252.342 113.253C252.342 112 252.904 110.935 254.11 110.935C255.308 110.935 255.87 112 255.87 113.253C255.87 114.51 255.308 115.562 254.11 115.562ZM258.579 116.5H259.853V114.178L260.488 113.543L262.713 116.5H264.277L261.447 112.763L264.098 109.955H262.572L259.964 112.724H259.853V107.773H258.579V116.5ZM270.164 111.553C269.9 110.534 269.103 109.869 267.688 109.869C266.209 109.869 265.161 110.649 265.161 111.808C265.161 112.737 265.723 113.355 266.951 113.628L268.059 113.871C268.689 114.011 268.983 114.293 268.983 114.702C268.983 115.209 268.442 115.605 267.607 115.605C266.844 115.605 266.354 115.277 266.201 114.634L264.969 114.821C265.182 115.98 266.145 116.632 267.615 116.632C269.196 116.632 270.292 115.793 270.292 114.608C270.292 113.683 269.703 113.112 268.502 112.835L267.462 112.597C266.742 112.426 266.431 112.183 266.435 111.74C266.431 111.237 266.976 110.879 267.701 110.879C268.493 110.879 268.86 111.318 269.009 111.757L270.164 111.553ZM276.287 116.5H277.583L278.912 111.774H279.01L280.34 116.5H281.64L283.561 109.955H282.245L280.971 114.74H280.907L279.628 109.955H278.311L277.025 114.761H276.961L275.678 109.955H274.361L276.287 116.5ZM287.392 116.632C288.82 116.632 289.83 115.929 290.12 114.864L288.914 114.646C288.684 115.264 288.13 115.58 287.405 115.58C286.314 115.58 285.581 114.872 285.547 113.611H290.201V113.159C290.201 110.794 288.786 109.869 287.303 109.869C285.479 109.869 284.277 111.259 284.277 113.27C284.277 115.303 285.462 116.632 287.392 116.632ZM285.551 112.656C285.603 111.727 286.276 110.922 287.311 110.922C288.3 110.922 288.948 111.655 288.952 112.656H285.551ZM297.547 116.632C299.094 116.632 300.096 115.703 300.236 114.429H298.996C298.834 115.136 298.284 115.554 297.556 115.554C296.478 115.554 295.783 114.655 295.783 113.227C295.783 111.825 296.49 110.943 297.556 110.943C298.365 110.943 298.86 111.455 298.996 112.068H300.236C300.1 110.747 299.022 109.869 297.534 109.869C295.689 109.869 294.496 111.259 294.496 113.257C294.496 115.23 295.647 116.632 297.547 116.632ZM304.356 116.632C306.201 116.632 307.407 115.281 307.407 113.257C307.407 111.22 306.201 109.869 304.356 109.869C302.511 109.869 301.305 111.22 301.305 113.257C301.305 115.281 302.511 116.632 304.356 116.632ZM304.36 115.562C303.154 115.562 302.592 114.51 302.592 113.253C302.592 112 303.154 110.935 304.36 110.935C305.558 110.935 306.12 112 306.12 113.253C306.12 114.51 305.558 115.562 304.36 115.562ZM312.975 113.786C312.98 114.898 312.153 115.426 311.437 115.426C310.649 115.426 310.103 114.855 310.103 113.964V109.955H308.829V114.118C308.829 115.741 309.72 116.585 310.977 116.585C311.961 116.585 312.63 116.065 312.933 115.366H313.001V116.5H314.254V109.955H312.975V113.786ZM317.24 107.773H315.966V116.5H317.24V107.773ZM321.404 116.628C322.598 116.628 323.066 115.899 323.297 115.482H323.403V116.5H324.647V107.773H323.373V111.016H323.297C323.066 110.611 322.632 109.869 321.413 109.869C319.832 109.869 318.669 111.118 318.669 113.24C318.669 115.358 319.815 116.628 321.404 116.628ZM321.686 115.541C320.548 115.541 319.956 114.54 319.956 113.227C319.956 111.928 320.535 110.952 321.686 110.952C322.798 110.952 323.395 111.859 323.395 113.227C323.395 114.604 322.785 115.541 321.686 115.541ZM327.74 112.614C327.74 111.57 328.379 110.973 329.266 110.973C330.131 110.973 330.655 111.54 330.655 112.49V116.5H331.929V112.337C331.929 110.717 331.038 109.869 329.7 109.869C328.716 109.869 328.072 110.325 327.77 111.02H327.689V109.955H326.466V116.5H327.74V112.614ZM334.733 107.773H333.642V108.604C333.642 109.264 333.352 109.805 333.02 110.295L333.651 110.747C334.307 110.219 334.733 109.315 334.733 108.591V107.773ZM339.271 109.955H337.929V108.386H336.655V109.955H335.696V110.977H336.655V114.842C336.651 116.031 337.558 116.607 338.564 116.585C338.969 116.581 339.241 116.504 339.391 116.449L339.161 115.396C339.075 115.413 338.918 115.452 338.713 115.452C338.3 115.452 337.929 115.315 337.929 114.578V110.977H339.271V109.955ZM343.857 116.5H345.131V109.955H343.857V116.5ZM344.5 108.945C344.939 108.945 345.305 108.604 345.305 108.186C345.305 107.768 344.939 107.423 344.5 107.423C344.057 107.423 343.695 107.768 343.695 108.186C343.695 108.604 344.057 108.945 344.5 108.945ZM346.845 116.5H348.119V112.464C348.119 111.582 348.737 110.969 349.461 110.969C350.169 110.969 350.659 111.438 350.659 112.149V116.5H351.929V112.328C351.929 111.54 352.41 110.969 353.241 110.969C353.914 110.969 354.468 111.344 354.468 112.23V116.5H355.743V112.111C355.743 110.615 354.907 109.869 353.723 109.869C352.781 109.869 352.074 110.321 351.758 111.02H351.69C351.404 110.304 350.804 109.869 349.93 109.869C349.065 109.869 348.422 110.3 348.149 111.02H348.068V109.955H346.845V116.5ZM357.45 118.955H358.724V115.482H358.801C359.031 115.899 359.5 116.628 360.693 116.628C362.278 116.628 363.429 115.358 363.429 113.24C363.429 111.118 362.261 109.869 360.68 109.869C359.466 109.869 359.027 110.611 358.801 111.016H358.695V109.955H357.45V118.955ZM358.699 113.227C358.699 111.859 359.295 110.952 360.408 110.952C361.562 110.952 362.142 111.928 362.142 113.227C362.142 114.54 361.545 115.541 360.408 115.541C359.312 115.541 358.699 114.604 358.699 113.227ZM367.614 116.632C369.459 116.632 370.665 115.281 370.665 113.257C370.665 111.22 369.459 109.869 367.614 109.869C365.768 109.869 364.562 111.22 364.562 113.257C364.562 115.281 365.768 116.632 367.614 116.632ZM367.618 115.562C366.412 115.562 365.849 114.51 365.849 113.253C365.849 112 366.412 110.935 367.618 110.935C368.815 110.935 369.378 112 369.378 113.253C369.378 114.51 368.815 115.562 367.618 115.562ZM372.087 116.5H373.361V112.503C373.361 111.646 374.022 111.028 374.925 111.028C375.189 111.028 375.488 111.075 375.59 111.105V109.886C375.462 109.869 375.211 109.857 375.049 109.857C374.282 109.857 373.625 110.291 373.387 110.994H373.319V109.955H372.087V116.5ZM380.135 109.955H378.792V108.386H377.518V109.955H376.559V110.977H377.518V114.842C377.514 116.031 378.422 116.607 379.427 116.585C379.832 116.581 380.105 116.504 380.254 116.449L380.024 115.396C379.939 115.413 379.781 115.452 379.576 115.452C379.163 115.452 378.792 115.315 378.792 114.578V110.977H380.135V109.955Z" fill="#FFFBEB"/>
</g>
</g>
<defs>
<filter id="filter0_dd" x="0" y="0" width="436" height="183" filterUnits="userSpaceOnUse" color-interpolation-filters="sRGB">
<feFlood flood-opacity="0" result="BackgroundImageFix"/>
<feColorMatrix in="SourceAlpha" type="matrix" values="0 0 0 0 0 0 0 0 0 0 0 0 0 0 0 0 0 0 127 0" result="hardAlpha"/>
<feMorphology radius="5" operator="erode" in="SourceAlpha" result="effect1_dropShadow"/>
<feOffset dy="10"/>
<feGaussianBlur stdDeviation="5"/>
<feColorMatrix type="matrix" values="0 0 0 0 0 0 0 0 0 0 0 0 0 0 0 0 0 0 0.04 0"/>
<feBlend mode="normal" in2="BackgroundImageFix" result="effect1_dropShadow"/>
<feColorMatrix in="SourceAlpha" type="matrix" values="0 0 0 0 0 0 0 0 0 0 0 0 0 0 0 0 0 0 127 0" result="hardAlpha"/>
<feMorphology radius="5" operator="erode" in="SourceAlpha" result="effect2_dropShadow"/>
<feOffset dy="20"/>
<feGaussianBlur stdDeviation="12.5"/>
<feColorMatrix type="matrix" values="0 0 0 0 0 0 0 0 0 0 0 0 0 0 0 0 0 0 0.1 0"/>
<feBlend mode="normal" in2="effect1_dropShadow" result="effect2_dropShadow"/>
<feBlend mode="normal" in="SourceGraphic" in2="effect2_dropShadow" result="shape"/>
</filter>
<filter id="filter1_dd" x="234.5" y="18.5" width="168" height="30" filterUnits="userSpaceOnUse" color-interpolation-filters="sRGB">
<feFlood flood-opacity="0" result="BackgroundImageFix"/>
<feColorMatrix in="SourceAlpha" type="matrix" values="0 0 0 0 0 0 0 0 0 0 0 0 0 0 0 0 0 0 127 0" result="hardAlpha"/>
<feOffset dy="1"/>
<feGaussianBlur stdDeviation="1"/>
<feColorMatrix type="matrix" values="0 0 0 0 0 0 0 0 0 0 0 0 0 0 0 0 0 0 0.06 0"/>
<feBlend mode="normal" in2="BackgroundImageFix" result="effect1_dropShadow"/>
<feColorMatrix in="SourceAlpha" type="matrix" values="0 0 0 0 0 0 0 0 0 0 0 0 0 0 0 0 0 0 127 0" result="hardAlpha"/>
<feOffset dy="1"/>
<feGaussianBlur stdDeviation="1.5"/>
<feColorMatrix type="matrix" values="0 0 0 0 0 0 0 0 0 0 0 0 0 0 0 0 0 0 0.1 0"/>
<feBlend mode="normal" in2="effect1_dropShadow" result="effect2_dropShadow"/>
<feBlend mode="normal" in="SourceGraphic" in2="effect2_dropShadow" result="shape"/>
</filter>
<filter id="filter2_dd" x="157.5" y="57.5" width="84" height="34" filterUnits="userSpaceOnUse" color-interpolation-filters="sRGB">
<feFlood flood-opacity="0" result="BackgroundImageFix"/>
<feColorMatrix in="SourceAlpha" type="matrix" values="0 0 0 0 0 0 0 0 0 0 0 0 0 0 0 0 0 0 127 0" result="hardAlpha"/>
<feOffset dy="1"/>
<feGaussianBlur stdDeviation="1"/>
<feColorMatrix type="matrix" values="0 0 0 0 0 0 0 0 0 0 0 0 0 0 0 0 0 0 0.06 0"/>
<feBlend mode="normal" in2="BackgroundImageFix" result="effect1_dropShadow"/>
<feColorMatrix in="SourceAlpha" type="matrix" values="0 0 0 0 0 0 0 0 0 0 0 0 0 0 0 0 0 0 127 0" result="hardAlpha"/>
<feOffset dy="1"/>
<feGaussianBlur stdDeviation="1.5"/>
<feColorMatrix type="matrix" values="0 0 0 0 0 0 0 0 0 0 0 0 0 0 0 0 0 0 0.1 0"/>
<feBlend mode="normal" in2="effect1_dropShadow" result="effect2_dropShadow"/>
<feBlend mode="normal" in="SourceGraphic" in2="effect2_dropShadow" result="shape"/>
</filter>
<filter id="filter3_dd" x="33.5" y="96.5" width="176" height="34" filterUnits="userSpaceOnUse" color-interpolation-filters="sRGB">
<feFlood flood-opacity="0" result="BackgroundImageFix"/>
<feColorMatrix in="SourceAlpha" type="matrix" values="0 0 0 0 0 0 0 0 0 0 0 0 0 0 0 0 0 0 127 0" result="hardAlpha"/>
<feOffset dy="1"/>
<feGaussianBlur stdDeviation="1"/>
<feColorMatrix type="matrix" values="0 0 0 0 0 0 0 0 0 0 0 0 0 0 0 0 0 0 0.06 0"/>
<feBlend mode="normal" in2="BackgroundImageFix" result="effect1_dropShadow"/>
<feColorMatrix in="SourceAlpha" type="matrix" values="0 0 0 0 0 0 0 0 0 0 0 0 0 0 0 0 0 0 127 0" result="hardAlpha"/>
<feOffset dy="1"/>
<feGaussianBlur stdDeviation="1.5"/>
<feColorMatrix type="matrix" values="0 0 0 0 0 0 0 0 0 0 0 0 0 0 0 0 0 0 0.1 0"/>
<feBlend mode="normal" in2="effect1_dropShadow" result="effect2_dropShadow"/>
<feBlend mode="normal" in="SourceGraphic" in2="effect2_dropShadow" result="shape"/>
</filter>
<filter id="filter4_dd" x="215.5" y="96.5" width="175" height="34" filterUnits="userSpaceOnUse" color-interpolation-filters="sRGB">
<feFlood flood-opacity="0" result="BackgroundImageFix"/>
<feColorMatrix in="SourceAlpha" type="matrix" values="0 0 0 0 0 0 0 0 0 0 0 0 0 0 0 0 0 0 127 0" result="hardAlpha"/>
<feOffset dy="1"/>
<feGaussianBlur stdDeviation="1"/>
<feColorMatrix type="matrix" values="0 0 0 0 0 0 0 0 0 0 0 0 0 0 0 0 0 0 0.06 0"/>
<feBlend mode="normal" in2="BackgroundImageFix" result="effect1_dropShadow"/>
<feColorMatrix in="SourceAlpha" type="matrix" values="0 0 0 0 0 0 0 0 0 0 0 0 0 0 0 0 0 0 127 0" result="hardAlpha"/>
<feOffset dy="1"/>
<feGaussianBlur stdDeviation="1.5"/>
<feColorMatrix type="matrix" values="0 0 0 0 0 0 0 0 0 0 0 0 0 0 0 0 0 0 0.1 0"/>
<feBlend mode="normal" in2="effect1_dropShadow" result="effect2_dropShadow"/>
<feBlend mode="normal" in="SourceGraphic" in2="effect2_dropShadow" result="shape"/>
</filter>
<clipPath id="clip0">
<rect width="12" height="12" fill="white" transform="translate(241.5 26.5)"/>
</clipPath>
</defs>
</svg>
