<svg width="253" height="307" viewBox="0 0 253 307" fill="none" xmlns="http://www.w3.org/2000/svg">
<path d="M116.511 168.328C124.314 175.35 152.011 176.521 157.863 145.312" stroke="#6366F1" stroke-width="12.4834" stroke-linecap="round"/>
<path d="M42.381 174.092L32.2458 179.944L66.1849 238.728L82.1717 243.012L42.381 174.092Z" fill="#D1D5DB"/>
<path d="M42.3809 174.092L52.5161 168.241L86.4552 227.025L82.1715 243.012L42.3809 174.092Z" fill="#9CA3AF"/>
<rect width="37.4501" height="8.5823" rx="0.780209" transform="matrix(0.866025 -0.5 -0.5 -0.866025 26.1646 183.455)" fill="#312E81"/>
<path d="M34.5304 171.418L43.9899 165.956L32.6769 146.361C31.1688 143.749 27.8286 142.854 25.2164 144.362C22.6042 145.871 21.7092 149.211 23.2174 151.823L34.5304 171.418Z" fill="#312E81"/>
<ellipse rx="19.8953" ry="19.1151" transform="matrix(-1 0 0 1 106.369 135.169)" fill="#6366F1"/>
<path d="M120.023 135.56C120.023 136.594 119.406 137.586 118.309 138.318C117.211 139.05 115.723 139.461 114.171 139.461C112.619 139.461 111.131 139.05 110.033 138.318C108.936 137.586 108.32 136.594 108.32 135.56L114.171 135.56L120.023 135.56Z" fill="white"/>
<ellipse rx="3.12084" ry="3.51094" transform="matrix(-1 0 0 1 124.143 134.389)" fill="#1F2937"/>
<ellipse rx="3.12084" ry="3.51094" transform="matrix(-1 0 0 1 105.979 134.389)" fill="#1F2937"/>
<path d="M96.1018 156.336C103.504 159.784 110.643 158.456 115.188 156.479C116.857 155.753 118.969 156.534 119.448 158.29L140.966 237.19C141.421 238.856 140.166 240.498 138.44 240.498H69.3792C67.6068 240.498 66.3463 238.774 66.8837 237.085L92.0656 157.942C92.5892 156.296 94.5366 155.607 96.1018 156.336Z" fill="#4338CA"/>
<path d="M112 158.5C112 158.5 120.803 194.188 123.533 239" stroke="#312E81" stroke-width="1.56042" stroke-linecap="round"/>
<ellipse rx="2.34012" ry="2.68165" transform="matrix(-0.994137 0.108129 0.112124 0.993694 108.373 171.918)" fill="#312E81"/>
<ellipse rx="2.34012" ry="2.68165" transform="matrix(-0.994137 0.108129 0.112124 0.993694 110.373 187.918)" fill="#312E81"/>
<path d="M142.911 133H73.0507C70.8624 133 70.2634 129.99 72.285 129.152L79.6874 126.085C82.1557 125.062 83.5756 122.507 83.9446 119.861C84.9212 112.859 89.968 103.786 105.273 103.041C120.881 102.282 126.586 112.166 128.005 119.858C128.491 122.493 130.145 124.91 132.702 125.71L143.508 129.091C145.694 129.775 145.201 133 142.911 133Z" fill="#FFFBEB"/>
<path d="M184.715 256.1L220.001 220.1C221.862 218.202 220.517 215 217.859 215H14.1413C11.4831 215 10.1381 218.202 11.9989 220.1L47.2852 256.1C47.8494 256.676 48.6216 257 49.4277 257H182.572C183.378 257 184.151 256.676 184.715 256.1Z" fill="#FFFBEB"/>
<path d="M12.84 242.181L4.42034 250.456C1.59271 253.235 0 257.033 0 260.998V274.22C0 282.383 6.61737 289 14.7803 289H185.6H217.22C225.383 289 232 282.383 232 274.22V260.998C232 257.033 230.407 253.235 227.58 250.456L219.16 242.181C213.409 236.53 204.191 236.53 198.44 242.181L195.96 244.619C190.209 250.27 180.991 250.27 175.24 244.619L172.76 242.181C167.009 236.53 157.791 236.53 152.04 242.181L149.56 244.619C143.809 250.27 134.591 250.27 128.84 244.619L126.36 242.181C120.609 236.53 111.391 236.53 105.64 242.181L103.16 244.619C97.4094 250.27 88.1906 250.27 82.44 244.619L79.96 242.181C74.2094 236.53 64.9906 236.53 59.24 242.181L56.76 244.619C51.0094 250.27 41.7906 250.27 36.04 244.619L33.56 242.181C27.8094 236.53 18.5906 236.53 12.84 242.181Z" fill="#6366F1"/>
<path fill-rule="evenodd" clip-rule="evenodd" d="M160.997 128.696C161.644 127.577 163.075 127.193 164.195 127.84C165.314 128.486 165.698 129.917 165.052 131.037L106.305 232.79C106.429 233.035 106.531 233.297 106.605 233.573L113.154 258.016C113.429 259.041 113.285 260.132 112.754 261.051L91.758 297.418C90.6534 299.331 88.2071 299.987 86.2939 298.882L55.3021 280.989C53.3889 279.885 52.7334 277.438 53.838 275.525L74.8344 239.158C75.3649 238.239 76.2385 237.569 77.2633 237.294L101.706 230.745C101.848 230.707 101.99 230.677 102.132 230.655L160.997 128.696Z" fill="#3730A3"/>
<path d="M153 142.207C153 142.207 156.586 141.379 157.965 142.758" stroke="#6366F1" stroke-width="12.4834" stroke-linecap="round"/>
<path d="M123.5 203C100 214.5 65.2847 182.001 91.5 161" stroke="#6366F1" stroke-width="12.4834" stroke-linecap="round"/>
<path d="M228 191.5L228 198.469L228 205L237.338 195.676C238.402 194.613 239 193.17 239 191.666L239 191.5C239 188.462 236.538 186 233.5 186C230.462 186 228 188.462 228 191.5Z" fill="#6366F1"/>
<path d="M247.5 220H240.531H234L243.324 229.338C244.387 230.402 245.83 231 247.334 231H247.5C250.538 231 253 228.538 253 225.5C253 222.462 250.538 220 247.5 220Z" fill="#6366F1"/>
<path d="M198.889 189.667L203.817 194.595L208.435 199.213L208.444 186.017C208.446 184.513 207.848 183.07 206.785 182.007L206.667 181.889C204.519 179.741 201.037 179.741 198.889 181.889C196.741 184.037 196.741 187.519 198.889 189.667Z" fill="#6366F1"/>
<path d="M33.6724 47.205C34.2582 44.8321 37.6314 44.8321 38.2172 47.205L39.1589 51.0193C39.3672 51.8634 40.0262 52.5224 40.8703 52.7308L44.6846 53.6724C47.0575 54.2582 47.0575 57.6314 44.6846 58.2172L40.8703 59.1589C40.0262 59.3672 39.3672 60.0262 39.1589 60.8703L38.2172 64.6846C37.6314 67.0575 34.2582 67.0575 33.6724 64.6846L32.7308 60.8703C32.5224 60.0262 31.8634 59.3672 31.0193 59.1589L27.205 58.2172C24.8321 57.6314 24.8321 54.2582 27.205 53.6724L31.0193 52.7308C31.8634 52.5224 32.5224 51.8634 32.7308 51.0193L33.6724 47.205Z" fill="#FBBF24"/>
<path d="M207.672 9.20499C208.258 6.83213 211.631 6.83212 212.217 9.20498L213.159 13.0193C213.367 13.8634 214.026 14.5224 214.87 14.7308L218.685 15.6724C221.058 16.2582 221.058 19.6314 218.685 20.2172L214.87 21.1589C214.026 21.3672 213.367 22.0262 213.159 22.8703L212.217 26.6846C211.631 29.0575 208.258 29.0575 207.672 26.6846L206.731 22.8703C206.522 22.0262 205.863 21.3672 205.019 21.1589L201.205 20.2172C198.832 19.6314 198.832 16.2582 201.205 15.6724L205.019 14.7308C205.863 14.5224 206.522 13.8634 206.731 13.0193L207.672 9.20499Z" fill="#FBBF24"/>
</svg>
