<svg width="105" height="49" viewBox="0 0 105 49" fill="none" xmlns="http://www.w3.org/2000/svg">
<path d="M51.5682 8.39205H55.1307V18H57.5625V8.39205H61.125V6.36364H51.5682V8.39205ZM61.7472 18H64.1676V13.0625C64.1676 11.9886 64.9517 11.25 66.0199 11.25C66.3551 11.25 66.8153 11.3068 67.0426 11.3807V9.23295C66.8267 9.18182 66.5256 9.14773 66.2812 9.14773C65.304 9.14773 64.5028 9.71591 64.1847 10.7955H64.0938V9.27273H61.7472V18ZM70.054 21.2727C71.8551 21.2727 72.8097 20.3523 73.304 18.9432L76.696 9.28409L74.1335 9.27273L72.3097 15.6818H72.2188L70.4119 9.27273H67.8665L70.9972 18.25L70.8551 18.6193C70.5369 19.4375 69.929 19.4773 69.0767 19.2159L68.5312 21.0227C68.8778 21.1705 69.4403 21.2727 70.054 21.2727ZM81.6832 6.36364V18H84.0696V10.3977H84.1662L87.1776 17.9432H88.8026L91.8139 10.4261H91.9105V18H94.2969V6.36364H91.2628L88.0582 14.1818H87.9219L84.7173 6.36364H81.6832ZM100.256 18.1705C102.415 18.1705 103.869 17.1193 104.21 15.5L101.972 15.3523C101.727 16.017 101.102 16.3636 100.295 16.3636C99.0852 16.3636 98.3182 15.5625 98.3182 14.2614V14.2557H104.261V13.5909C104.261 10.625 102.466 9.15909 100.159 9.15909C97.5909 9.15909 95.9261 10.983 95.9261 13.6761C95.9261 16.4432 97.5682 18.1705 100.256 18.1705ZM98.3182 12.7557C98.3693 11.7614 99.125 10.9659 100.199 10.9659C101.25 10.9659 101.977 11.7159 101.983 12.7557H98.3182Z" fill="#FBBF24"/>
<path d="M2.08842 27.0039C1.53829 26.9551 1.05275 27.3615 1.00392 27.9116L0.208171 36.8763C0.159341 37.4265 0.565717 37.912 1.11584 37.9608C1.66596 38.0097 2.15151 37.6033 2.20034 37.0532L2.90767 29.0845L10.8763 29.7918C11.4265 29.8407 11.912 29.4343 11.9608 28.8842C12.0097 28.334 11.6033 27.8485 11.0532 27.7997L2.08842 27.0039ZM1.23314 28.6418C7.38114 35.9876 20.7147 44.9872 36.0145 47.6741C51.3983 50.3758 68.7871 46.6895 82.7906 28.6124L81.2094 27.3876C67.7129 44.8105 51.1017 48.2931 36.3605 45.7043C21.5353 43.1007 8.61886 34.3503 2.76686 27.3582L1.23314 28.6418Z" fill="#FBBF24"/>
</svg>
